<?xml version="1.0" encoding="UTF-8"?>
<svg xmlns="http://www.w3.org/2000/svg"
     viewBox="0 0 420 620"
     role="img"
     aria-labelledby="title description"
     data-design-status="REVIEW_ONLY"
     data-navigation-authority="false">
  <title id="title">Kaido Routes Shuto Route Atlas recognition design</title>
  <desc id="description">North-up non-navigable design reference. National Land Numerical Information (Highway Time Series, N06-2025), Ministry of Land, Infrastructure, Transport and Tourism of Japan. Kaido Routes used only current-state records (end year 9999), filtered designated urban expressway features whose route name begins with 首都高速 plus the separately operator-reconciled 高速横浜環状北西線 record, retained complete and provisional-use geometries without vertex simplification, and projected JGD2011 EPSG:6668 coordinates into a north-up local equirectangular normalized display space. The result is geographic context only and has no direction, legal-movement, RoutePlan, or realtime authority.</desc>
  <metadata>National Land Numerical Information (Highway Time Series, N06-2025), Ministry of Land, Infrastructure, Transport and Tourism of Japan. Modified by Kaido Routes. Source data licensed CC BY 4.0. Display reference only; no navigation authority.</metadata>
  <rect width="420" height="620" rx="28" fill="#162329"/>
  <g fill="none" stroke-linecap="round" stroke-linejoin="round">
      <path class="atlas-context-path atlas-context-c1" data-path-id="mlit.n06-2025.feature.0879.part.000" data-source-feature-id="mlit.n06-2025.feature.0879" data-source-record-id="EA02_171001" data-route-name-ja="首都高速都心環状線" d="M239.387 258.101 L238.949 258.850 L238.533 259.670 L238.038 260.663 L237.166 262.454 L236.788 263.235 L236.327 264.195 L236.017 264.890 L235.183 266.417 L234.666 267.260"/>
      <path class="atlas-context-path atlas-context-c1" data-path-id="mlit.n06-2025.feature.0880.part.000" data-source-feature-id="mlit.n06-2025.feature.0880" data-source-record-id="EA02_171002" data-route-name-ja="首都高速都心環状線" d="M234.666 267.260 L234.655 267.635 L234.634 268.084 L234.595 268.511 L234.526 268.807"/>
      <path class="atlas-context-path atlas-context-c1" data-path-id="mlit.n06-2025.feature.0881.part.000" data-source-feature-id="mlit.n06-2025.feature.0881" data-source-record-id="EA02_171003" data-route-name-ja="首都高速都心環状線" d="M234.526 268.807 L234.306 269.612 L234.189 269.948 L234.043 270.356 L233.845 270.684 L233.467 271.178 L232.701 271.930 L232.384 272.272 L231.917 272.755 L231.184 273.513 L231.060 273.694 L230.954 273.918 L230.837 274.289 L230.695 274.771 L230.551 274.995 L230.079 275.450 L229.429 276.169 L228.893 276.771 L228.351 277.392 L228.051 277.662 L227.726 277.800 L227.204 277.970 L226.874 278.164 L226.741 278.290 L226.328 278.944"/>
      <path class="atlas-context-path atlas-context-c1" data-path-id="mlit.n06-2025.feature.0882.part.000" data-source-feature-id="mlit.n06-2025.feature.0882" data-source-record-id="EA02_171004" data-route-name-ja="首都高速都心環状線" d="M226.328 278.944 L226.063 279.357 L225.474 280.249 L224.575 281.619 L224.447 281.849 L224.397 282.091 L224.436 282.338 L224.586 282.686 L224.724 282.989 L224.869 283.304 L224.891 283.432 L224.902 283.989 L224.919 284.482 L224.919 285.554 L224.952 286.582 L224.947 287.929 L224.930 288.255"/>
      <path class="atlas-context-path atlas-context-c1" data-path-id="mlit.n06-2025.feature.0883.part.000" data-source-feature-id="mlit.n06-2025.feature.0883" data-source-record-id="EA02_171005" data-route-name-ja="首都高速都心環状線" d="M224.930 288.255 L223.475 288.053 L222.970 288.053 L221.975 287.985 L221.020 287.873 L220.131 287.755 L219.220 287.541 L218.298 287.340 L217.993 287.300 L217.709 287.317 L217.360 287.424 L217.004 287.659 L216.821 287.767 L216.654 287.828 L216.410 287.861 L216.049 287.839 L215.565 287.761 L215.034 287.653"/>
      <path class="atlas-context-path atlas-context-c1" data-path-id="mlit.n06-2025.feature.0884.part.000" data-source-feature-id="mlit.n06-2025.feature.0884" data-source-record-id="EA02_171006" data-route-name-ja="首都高速都心環状線" d="M215.034 287.653 L214.755 287.452 L214.038 286.728 L213.838 286.548 L213.644 286.414 L213.239 286.296 L212.361 286.161 L211.400 286.071 L210.789 285.964 L210.511 285.897 L210.217 285.779 L209.950 285.684 L209.450 285.572 L209.106 285.509 L208.604 285.455 L208.215 285.410 L207.601 285.175 L207.371 285.000 L207.087 284.669 L206.806 284.162 L206.462 283.298 L206.412 282.821 L206.534 282.001 L206.668 281.596 L207.006 280.940 L207.390 280.239 L207.584 279.862 L207.801 279.087 L207.995 277.852 L208.334 275.877 L208.287 275.473 L208.036 274.820 L209.128 273.423 L210.450 271.862 L211.700 270.358 L212.083 269.977 L212.388 269.859 L213.055 269.679 L213.849 269.432 L214.205 269.229 L214.568 268.933"/>
      <path class="atlas-context-path atlas-context-c1" data-path-id="mlit.n06-2025.feature.0885.part.000" data-source-feature-id="mlit.n06-2025.feature.0885" data-source-record-id="EA02_171007" data-route-name-ja="首都高速都心環状線" d="M214.568 268.933 L214.799 268.669 L215.454 267.552 L216.054 266.361 L216.282 265.980 L216.593 265.227 L216.743 264.542 L216.332 264.340 L216.110 264.155 L215.610 263.515 L215.110 262.892 L214.932 262.701 L214.622 262.487 L214.200 262.342 L213.760 262.202"/>
      <path class="atlas-context-path atlas-context-c1" data-path-id="mlit.n06-2025.feature.0886.part.000" data-source-feature-id="mlit.n06-2025.feature.0886" data-source-record-id="EA02_171008" data-route-name-ja="首都高速都心環状線" d="M213.760 262.202 L213.422 261.523 L212.861 260.366 L212.677 259.973 L212.594 259.535 L212.489 259.063 L212.472 258.334 L212.705 256.947 L213.021 255.426 L213.271 254.157 L213.388 253.697 L213.816 253.455 L214.060 253.371 L214.911 253.153 L215.310 253.034 L215.588 252.990 L216.149 253.051 L216.716 253.135 L216.932 253.130 L217.260 253.147 L217.771 252.995 L218.370 252.680 L219.532 251.996 L219.958 251.752 L220.442 251.518 L221.320 251.170 L221.812 251.079 L222.009 251.072 L222.218 251.088 L222.560 251.134 L223.143 251.205 L223.456 251.229 L223.746 251.238 L224.314 251.221 L224.891 251.249 L225.307 251.311 L225.575 251.406 L225.997 251.681 L226.630 252.046 L227.002 252.193 L227.263 252.333 L227.635 252.703 L227.918 252.916 L228.135 253.073 L228.407 253.192 L228.746 253.275 L229.302 253.399 L230.059 253.494 L230.667 253.685 L231.146 253.966 L231.382 254.130 L231.901 254.640 L232.195 254.965 L232.517 255.403 L232.733 255.762 L232.956 256.173 L233.197 256.846 L233.314 257.111 L233.459 257.316 L233.722 257.568 L233.994 257.660"/>
      <path class="atlas-context-path atlas-context-c1" data-path-id="mlit.n06-2025.feature.0887.part.000" data-source-feature-id="mlit.n06-2025.feature.0887" data-source-record-id="EA02_171009" data-route-name-ja="首都高速都心環状線" d="M233.994 257.660 L234.339 257.744 L235.300 257.975 L235.811 258.081 L236.394 258.132 L237.038 258.109 L237.344 258.070 L238.239 257.897 L238.560 257.876 L238.899 257.948 L239.387 258.101"/>
      <path class="atlas-context-path atlas-context-c1" data-path-id="mlit.n06-2025.feature.0888.part.000" data-source-feature-id="mlit.n06-2025.feature.0888" data-source-record-id="EA02_171010" data-route-name-ja="首都高速都心環状線" d="M234.666 267.260 L234.528 267.501 L234.389 267.658 L234.194 267.725 L233.983 267.714 L233.384 267.434 L232.928 267.232"/>
      <path class="atlas-context-path atlas-context-c2" data-path-id="mlit.n06-2025.feature.0889.part.000" data-source-feature-id="mlit.n06-2025.feature.0889" data-source-record-id="EA02_172001" data-route-name-ja="首都高速中央環状線" d="M168.946 259.721 L169.262 260.105 L169.380 260.321 L169.428 260.504 L169.451 260.697 L169.459 261.016 L169.451 261.336 L169.436 261.663 L169.356 262.318 L169.238 263.085 L169.088 263.628 L168.977 264.036 L168.819 264.563 L168.677 264.971 L168.630 265.179 L168.590 265.402 L168.582 266.273 L168.590 267.232 L168.590 268.805 L168.613 270.428 L168.693 272.440 L168.701 273.974 L168.732 274.789 L168.724 275.077 L168.661 275.723 L168.622 276.131 L168.487 277.305 L168.424 278.113 L168.400 278.671 L168.384 279.063 L168.416 279.319 L168.510 279.574 L168.645 279.822 L169.151 280.597 L169.690 281.341 L170.234 282.107 L170.811 282.914 L170.969 283.258 L171.072 283.593 L171.080 283.849 L171.024 284.128 L170.953 284.376 L170.392 285.694 L170.266 286.070 L170.139 286.397 L170.052 286.716 L169.973 287.252 L170.005 288.107"/>
      <path class="atlas-context-path atlas-context-c2" data-path-id="mlit.n06-2025.feature.0890.part.000" data-source-feature-id="mlit.n06-2025.feature.0890" data-source-record-id="EA02_172002" data-route-name-ja="首都高速中央環状線" d="M183.373 203.390 L182.789 204.305 L182.275 205.033 L181.722 205.696 L180.871 206.639 L179.612 208.028 L179.083 208.604 L178.569 209.139 L178.379 209.395 L178.189 209.643 L178.055 209.874 L177.897 210.186 L177.691 210.753 L177.193 211.999 L176.553 213.637 L176.024 214.915 L175.676 215.658 L174.822 217.287 L173.842 219.158 L173.462 219.828 L172.925 220.524 L172.269 221.362 L171.394 222.515 L170.789 223.262 L170.303 223.885 L169.936 224.376 L169.528 224.911 L168.924 225.658 L168.730 226.021 L168.418 226.829 L168.137 227.680 L167.663 228.898 L167.165 230.252 L166.991 230.687 L166.667 231.494 L166.233 232.693 L165.734 233.915 L165.193 235.361 L164.948 235.992 L164.790 236.423 L164.711 236.771 L164.681 236.998 L164.642 237.313 L164.616 237.773 L164.491 238.997 L164.397 239.928 L164.359 240.610 L164.355 240.942 L164.367 241.109 L164.458 241.305 L164.565 241.476 L164.742 241.688 L164.845 241.816 L164.896 241.932 L164.932 242.048 L164.948 242.264 L164.924 242.894 L164.845 244.325 L164.778 245.779 L164.632 246.761 L164.502 247.520 L164.315 248.643 L164.174 249.586 L164.055 250.252 L164.012 250.549 L163.968 250.864 L163.928 251.283 L163.889 251.715 L163.873 252.350 L163.881 252.545 L163.913 252.713 L163.960 252.877 L164.025 253.076 L164.192 253.390 L164.391 253.712 L165.153 254.615 L165.744 255.304 L166.251 255.927 L166.590 256.430 L167.167 257.364 L167.729 258.180 L168.424 259.075 L168.946 259.721"/>
      <path class="atlas-context-path atlas-context-c2" data-path-id="mlit.n06-2025.feature.0891.part.000" data-source-feature-id="mlit.n06-2025.feature.0891" data-source-record-id="EA02_172003" data-route-name-ja="首都高速中央環状線" d="M226.945 179.251 L225.666 179.917 L224.860 180.388 L223.959 180.904 L223.141 181.399 L222.430 181.919 L221.714 182.422 L221.007 182.961 L219.604 183.996 L218.821 184.539 L218.004 185.042 L217.217 185.557 L216.419 186.069 L215.695 186.652 L215.379 186.975 L215.023 187.343 L214.661 187.623 L214.387 187.750 L214.084 187.846 L213.617 188.006 L213.269 188.118 L212.580 188.355 L212.219 188.524 L211.947 188.687 L211.741 188.838 L211.519 189.007 L211.363 189.158 L211.230 189.377 L211.150 189.655 L211.092 190.247 L211.062 190.464 L210.973 190.834 L210.861 191.111 L210.778 191.326 L210.645 191.555 L210.495 191.769 L210.310 191.997 L210.069 192.225 L209.619 192.519 L209.462 192.622 L209.249 192.725 L208.931 192.886 L208.623 193.062 L208.380 193.231 L207.978 193.484 L207.575 193.765 L207.217 194.069 L206.796 194.549 L205.595 195.520 L204.433 196.470 L203.638 197.158 L202.555 198.160 L201.421 199.171 L201.062 199.506 L200.623 199.913 L199.931 200.600 L199.457 199.946 L199.252 199.674 L198.852 199.311 L197.793 198.475 L196.904 197.788 L195.940 197.013 L195.501 196.666 L195.165 196.407 L194.971 196.299 L194.833 196.251 L194.651 196.210 L194.450 196.183 L193.521 196.079 L193.314 196.057 L190.419 195.704 L189.344 195.571 L188.585 195.460 L188.040 195.372 L187.680 195.280 L184.686 194.184"/>
      <path class="atlas-context-path atlas-context-c2" data-path-id="mlit.n06-2025.feature.0892.part.000" data-source-feature-id="mlit.n06-2025.feature.0892" data-source-record-id="EA02_172004" data-route-name-ja="首都高速中央環状線" d="M261.489 184.889 L261.125 184.732 L260.414 184.465 L259.798 184.250 L259.329 184.087 L258.637 183.882 L258.069 183.744 L257.638 183.657 L257.164 183.576 L256.658 183.504 L256.200 183.469 L255.603 183.432 L254.394 183.401 L253.378 183.440 L252.402 183.532 L251.339 183.708 L250.493 183.876 L248.754 184.219 L247.877 184.395 L247.027 184.567 L246.181 184.747 L245.316 184.918 L244.454 185.070 L243.593 185.222 L242.739 185.370 L241.858 185.513 L240.997 185.653 L240.131 185.758 L239.250 185.821 L238.297 185.877 L237.673 185.897 L236.772 185.849 L236.191 185.813 L235.693 185.758 L234.946 185.642 L234.424 185.561 L233.887 185.454 L233.321 185.304 L232.938 185.198 L232.302 184.990 L231.816 184.778 L231.117 184.443 L230.279 183.904 L229.808 183.589 L229.314 183.213 L229.113 183.033 L228.797 182.705 L228.566 182.467 L228.172 181.919 L227.715 181.165 L227.548 180.812 L227.369 180.401 L227.239 180.049 L227.070 179.589 L226.945 179.251"/>
      <path class="atlas-context-path atlas-context-c2" data-path-id="mlit.n06-2025.feature.0893.part.000" data-source-feature-id="mlit.n06-2025.feature.0893" data-source-record-id="EA02_172005" data-route-name-ja="首都高速中央環状線" d="M272.247 191.060 L270.398 191.104 L269.456 191.095 L269.204 191.037 L269.048 190.963 L268.895 190.859 L268.631 190.587 L267.971 189.860 L267.349 189.127 L267.049 188.777 L266.705 188.426 L265.980 187.758 L265.210 187.130 L264.388 186.500 L263.577 185.911 L262.903 185.512 L262.405 185.280 L261.489 184.889"/>
      <path class="atlas-context-path atlas-context-c2" data-path-id="mlit.n06-2025.feature.0894.part.000" data-source-feature-id="mlit.n06-2025.feature.0894" data-source-record-id="EA02_172006" data-route-name-ja="首都高速中央環状線" d="M272.248 194.069 L272.266 192.680 L272.247 191.060"/>
      <path class="atlas-context-path atlas-context-c2" data-path-id="mlit.n06-2025.feature.0895.part.000" data-source-feature-id="mlit.n06-2025.feature.0895" data-source-record-id="EA02_172007" data-route-name-ja="首都高速中央環状線" d="M274.323 200.303 L273.532 198.501 L272.899 197.025 L272.387 195.801 L272.304 195.554 L272.266 195.268 L272.248 194.069"/>
      <path class="atlas-context-path atlas-context-c2" data-path-id="mlit.n06-2025.feature.0896.part.000" data-source-feature-id="mlit.n06-2025.feature.0896" data-source-record-id="EA02_172008" data-route-name-ja="首都高速中央環状線" d="M282.005 212.235 L280.899 210.938 L280.316 210.220 L279.577 209.319 L279.017 208.600 L278.299 207.607 L277.494 206.484 L276.839 205.440 L276.434 204.704 L276.012 203.946 L275.311 202.471 L274.829 201.370 L274.323 200.303"/>
      <path class="atlas-context-path atlas-context-c2" data-path-id="mlit.n06-2025.feature.0897.part.000" data-source-feature-id="mlit.n06-2025.feature.0897" data-source-record-id="EA02_172009" data-route-name-ja="首都高速中央環状線" d="M295.315 293.800 L295.445 292.121 L295.489 291.200 L295.523 290.308 L295.629 288.476 L295.735 286.663 L295.813 284.841 L295.810 284.542 L295.782 284.238 L295.738 283.963 L295.608 283.553 L295.438 283.147 L295.090 282.321 L294.432 280.679 L294.338 280.409 L294.266 280.137 L294.241 279.857 L294.225 279.469 L294.249 278.989 L294.291 278.105 L294.372 276.334 L294.478 274.423 L294.619 271.930 L294.716 270.176 L294.749 269.676 L294.766 269.300 L294.808 268.430 L294.824 268.026 L294.849 267.546 L294.877 267.085 L294.930 266.647 L295.013 266.230 L295.108 265.820 L295.221 265.370 L295.347 264.947 L295.590 264.107 L295.913 263.280 L296.283 262.484 L296.704 261.707 L297.138 260.947 L297.582 260.177 L298.029 259.422 L298.482 258.651 L298.923 257.910 L299.359 257.149 L299.848 256.279 L300.367 255.334 L300.706 254.606 L301.045 253.790 L301.328 252.955 L301.586 252.125 L301.850 251.278 L302.078 250.430 L302.277 249.570 L302.439 248.532 L302.528 247.704 L302.575 247.049 L302.595 246.741 L302.617 246.050 L302.625 245.228 L302.579 244.418 L302.552 244.040 L302.520 243.629 L302.459 243.100 L302.375 242.507 L302.318 242.144 L302.208 241.596 L302.051 240.883 L301.827 240.008 L301.551 239.065 L301.261 238.206 L300.967 237.443 L300.626 236.681 L300.244 235.904 L299.814 235.116 L299.402 234.398 L298.907 233.599 L298.426 232.855 L297.946 232.177 L297.427 231.476 L296.849 230.747 L296.306 230.110 L295.739 229.441 L295.178 228.762 L294.421 227.862 L294.051 227.437 L293.501 226.769 L292.923 226.101 L292.335 225.416 L291.796 224.748 L291.230 224.092 L290.669 223.417 L290.107 222.744 L289.597 222.070 L289.197 221.301 L288.830 220.527 L288.602 220.184 L288.325 219.802 L287.786 219.145 L287.203 218.483 L286.642 217.821 L286.092 217.148 L285.531 216.490 L284.986 215.828 L284.426 215.165 L283.887 214.503 L283.321 213.785 L282.005 212.235"/>
      <path class="atlas-context-path atlas-context-radial" data-path-id="mlit.n06-2025.feature.0898.part.000" data-source-feature-id="mlit.n06-2025.feature.0898" data-source-record-id="EA02_173001" data-route-name-ja="首都高速1号上野線" d="M236.548 248.993 L236.460 249.726 L236.411 250.024 L236.378 250.469 L236.357 250.759 L236.385 251.076 L236.467 251.321 L236.828 252.381 L237.049 253.032 L237.481 254.253 L237.668 254.775 L237.800 255.204 L237.829 255.337 L237.866 255.660 L237.896 256.019 L237.942 256.728 L237.988 257.047 L238.054 257.320 L238.153 257.479 L238.310 257.586 L238.534 257.679 L238.741 257.756 L239.387 258.101"/>
      <path class="atlas-context-path atlas-context-radial" data-path-id="mlit.n06-2025.feature.0899.part.000" data-source-feature-id="mlit.n06-2025.feature.0899" data-source-record-id="EA02_173002" data-route-name-ja="首都高速1号上野線" d="M237.537 234.824 L237.501 235.211 L237.477 235.621 L237.403 236.722 L237.330 237.659 L237.266 238.382 L237.175 239.428 L237.103 240.298 L236.986 241.679 L236.930 242.448 L236.907 242.977 L236.907 244.501 L236.860 245.638 L236.814 246.503 L236.787 246.936 L236.735 247.281 L236.684 247.761 L236.595 248.714 L236.548 248.993"/>
      <path class="atlas-context-path atlas-context-radial" data-path-id="mlit.n06-2025.feature.0900.part.000" data-source-feature-id="mlit.n06-2025.feature.0900" data-source-record-id="EA02_173003" data-route-name-ja="首都高速1号上野線" d="M243.429 223.867 L242.280 225.703 L241.767 226.492 L241.243 227.314 L240.864 227.902 L240.361 228.681 L239.825 229.599 L239.621 229.949 L239.446 230.268 L239.294 230.554 L239.186 230.747 L239.071 230.936 L238.948 231.086 L238.771 231.232 L238.593 231.349 L238.103 231.728 L238.017 231.815 L237.928 231.948 L237.840 232.150 L237.783 232.310 L237.690 232.651 L237.670 232.950 L237.650 233.244 L237.622 233.738 L237.579 234.326 L237.537 234.824"/>
      <path class="atlas-context-path atlas-context-radial" data-path-id="mlit.n06-2025.feature.0901.part.000" data-source-feature-id="mlit.n06-2025.feature.0901" data-source-record-id="EA02_174001" data-route-name-ja="首都高速1号羽田線" d="M224.930 288.255 L224.791 288.672 L224.491 289.368 L224.208 290.047 L223.852 290.883 L223.519 291.714 L223.153 292.658 L222.727 293.663 L222.513 294.134 L222.153 294.981 L221.830 295.787 L221.479 296.634 L221.145 297.434 L220.808 298.251 L220.625 298.687 L220.475 299.058"/>
      <path class="atlas-context-path atlas-context-radial" data-path-id="mlit.n06-2025.feature.0902.part.000" data-source-feature-id="mlit.n06-2025.feature.0902" data-source-record-id="EA02_174002" data-route-name-ja="首都高速1号羽田線" d="M220.475 299.058 L220.047 300.057 L219.778 300.715 L219.466 301.518 L219.126 302.324 L218.785 303.143 L218.442 303.947 L218.106 304.778 L217.691 305.805 L217.571 306.070 L217.525 306.235 L217.493 306.514 L217.425 307.329 L217.364 308.226 L217.343 309.083 L217.293 309.970 L217.223 310.857 L217.159 311.740 L217.106 312.618 L217.042 313.501 L216.998 314.382 L216.931 315.264 L216.938 315.578 L216.974 315.889 L217.042 316.126 L217.329 316.722 L217.766 317.535 L217.936 317.852 L218.061 318.113 L218.263 318.518 L218.345 318.701 L218.465 318.999 L218.515 319.236 L218.515 319.573 L218.455 320.512 L218.391 321.395 L218.306 322.306 L218.238 323.235 L218.181 324.146 L218.106 325.046 L218.039 325.950 L217.961 326.868 L217.872 327.779 L217.805 328.690 L217.734 329.601 L217.654 330.601 L217.614 331.152 L217.540 331.984 L217.462 332.802 L217.392 333.089 L216.943 333.879 L216.412 334.796 L215.900 335.621 L215.516 336.068 L214.999 336.582 L214.126 337.457 L213.458 338.053 L212.794 338.561 L212.053 339.143 L211.655 339.458 L211.491 339.660 L211.307 340.190 L211.261 340.417 L211.023 341.495 L210.881 342.069 L210.755 342.580 L210.572 343.153 L210.367 343.624 L209.887 344.537 L209.539 345.140 L209.120 345.850 L208.644 346.589 L208.461 346.886"/>
      <path class="atlas-context-path atlas-context-radial" data-path-id="mlit.n06-2025.feature.0903.part.000" data-source-feature-id="mlit.n06-2025.feature.0903" data-source-record-id="EA02_174003" data-route-name-ja="首都高速1号羽田線" d="M208.461 346.886 L208.267 347.268 L208.122 347.616 L208.056 348.053 L208.101 348.368 L208.167 348.615 L208.273 348.839 L208.495 349.165 L208.845 349.558 L210.022 350.763 L210.568 351.366 L211.158 352.169 L211.483 352.685 L211.794 353.246 L212.005 353.673 L212.477 354.756 L213.139 356.329 L213.268 356.712 L213.614 357.456 L214.462 359.490 L214.773 360.175 L215.169 361.172 L215.646 362.398 L216.128 363.531 L216.355 364.033 L216.433 364.307 L216.484 364.700 L216.484 365.076 L216.461 365.315 L216.333 366.021 L216.262 366.289 L216.167 366.642 L216.073 367.159 L216.012 367.658 L215.990 367.917 L216.006 368.360 L216.073 368.967 L216.157 369.342 L216.301 369.837 L216.417 370.157 L216.568 370.468 L217.079 371.235 L218.187 372.778 L219.571 374.614 L220.345 375.955 L220.430 376.163 L220.451 376.393 L220.423 376.988 L220.253 377.870 L220.132 378.538 L219.947 379.104 L219.811 379.447"/>
      <path class="atlas-context-path atlas-context-radial" data-path-id="mlit.n06-2025.feature.0904.part.000" data-source-feature-id="mlit.n06-2025.feature.0904" data-source-record-id="EA02_174004" data-route-name-ja="首都高速1号羽田線" d="M219.811 379.447 L219.535 379.664 L218.300 380.353 L216.511 381.342 L214.935 382.210 L214.468 382.451 L214.224 382.703 L214.013 383.259 L213.819 383.907 L213.546 384.816"/>
      <path class="atlas-context-path atlas-context-radial" data-path-id="mlit.n06-2025.feature.0905.part.000" data-source-feature-id="mlit.n06-2025.feature.0905" data-source-record-id="EA02_175001" data-route-name-ja="首都高速2号目黒線" d="M207.601 285.175 L207.289 286.866 L207.117 287.758 L207.055 287.936 L207.013 288.102 L206.979 288.346 L206.996 288.605 L207.256 289.825 L207.376 290.390 L207.440 290.886 L207.458 291.252 L207.399 291.502 L207.193 292.090 L207.023 292.563 L206.902 292.928 L206.734 293.415 L206.629 293.629 L206.523 293.768 L206.348 293.925 L206.170 294.031 L205.977 294.078 L205.698 294.077 L204.789 293.897 L204.483 293.786 L204.152 293.582 L203.951 293.476 L203.707 293.351 L203.533 293.337 L203.304 293.355 L203.005 293.383 L202.070 293.513 L201.318 293.541 L200.970 293.551 L200.846 293.578 L200.442 293.712 L199.827 293.935 L199.530 294.007 L199.175 294.016 L198.768 294.064 L198.338 294.115 L198.136 294.167 L197.906 294.268 L197.085 294.690 L196.279 295.093 L195.920 295.298 L195.609 295.519 L195.357 295.807 L195.168 296.066 L194.962 296.344 L194.456 297.049 L193.671 298.204 L193.585 298.327 L193.478 298.449 L193.203 298.653 L192.781 298.955 L192.038 299.488 L191.713 299.826 L191.658 299.937 L191.502 300.169 L191.411 300.419 L191.337 300.738 L191.314 301.068 L191.292 301.980 L191.280 302.462 L191.361 302.847 L191.522 303.138 L191.866 303.593 L192.427 304.284 L192.962 304.934 L193.315 305.345 L193.494 305.721 L193.732 306.513 L193.977 307.405 L194.210 308.252 L194.304 308.674 L194.288 309.122 L194.199 309.589 L194.088 309.954 L193.943 310.285 L193.716 310.795 L193.516 311.217 L193.354 311.615 L193.249 311.902 L193.116 312.458 L192.883 313.316 L192.716 313.940 L192.584 314.212 L192.161 314.922 L191.977 315.197 L191.911 315.399 L191.897 315.787 L191.950 316.482 L192.006 316.978 L192.167 318.604 L192.253 319.337 L192.310 320.064 L192.322 320.356 L192.299 320.625 L192.238 320.900 L192.111 321.159"/>
      <path class="atlas-context-path atlas-context-radial" data-path-id="mlit.n06-2025.feature.0906.part.000" data-source-feature-id="mlit.n06-2025.feature.0906" data-source-record-id="EA02_176001" data-route-name-ja="首都高速3号渋谷線" d="M186.796 282.496 L187.895 282.352 L190.435 282.056 L191.397 281.954 L193.334 281.730 L194.363 281.643 L195.346 281.550 L196.082 281.470 L196.508 281.353 L196.888 281.251 L197.482 281.022 L198.014 280.794 L198.653 280.511 L199.358 280.211 L199.761 280.005 L200.341 279.652 L200.763 279.404 L201.375 279.042 L202.589 278.303 L203.311 277.872 L204.211 277.318 L204.876 276.941 L205.607 276.489 L206.224 276.134 L206.746 275.786 L207.128 275.525 L207.464 275.279 L208.036 274.820"/>
      <path class="atlas-context-path atlas-context-radial" data-path-id="mlit.n06-2025.feature.0907.part.000" data-source-feature-id="mlit.n06-2025.feature.0907" data-source-record-id="EA02_176002" data-route-name-ja="首都高速3号渋谷線" d="M179.289 283.510 L180.218 283.163 L180.462 283.087 L180.631 283.037 L180.759 283.029 L180.932 283.007 L181.207 282.993 L181.672 282.957 L182.310 282.917 L182.895 282.876 L184.145 282.783 L185.599 282.639 L186.796 282.496"/>
      <path class="atlas-context-path atlas-context-radial" data-path-id="mlit.n06-2025.feature.0908.part.000" data-source-feature-id="mlit.n06-2025.feature.0908" data-source-record-id="EA02_176003" data-route-name-ja="首都高速3号渋谷線" d="M120.759 312.530 L121.176 312.615 L121.743 312.704 L122.176 312.788 L122.842 312.962 L123.611 313.204 L124.250 313.450 L124.773 313.813 L125.123 314.006 L127.016 314.853 L127.818 315.220 L128.243 315.407 L128.580 315.498 L128.952 315.533 L129.262 315.538 L129.550 315.489 L129.839 315.399 L130.194 315.228 L131.253 314.647 L133.119 313.656 L134.298 313.006 L135.605 312.321 L136.492 311.878 L136.811 311.748 L138.180 311.197 L139.878 310.490 L141.816 309.737 L143.663 309.096 L144.213 308.916 L145.135 308.640 L145.441 308.536 L145.778 308.343 L146.168 308.066 L147.299 307.277 L148.411 306.467 L149.904 305.212 L150.836 304.379 L151.119 304.074 L151.438 303.631 L151.842 302.994 L152.272 302.286 L152.635 301.678 L153.118 300.867 L153.508 300.240 L154.164 299.124 L154.577 298.475 L154.949 297.861 L155.241 297.449 L155.471 297.149 L155.685 296.960 L155.840 296.853 L156.101 296.709 L156.411 296.544 L156.731 296.369 L157.045 296.199 L157.613 295.827 L158.184 295.442 L159.452 294.564 L160.254 294.004 L161.061 293.444 L162.089 292.763 L163.126 292.073 L163.854 291.594 L165.260 290.687 L166.531 289.833 L167.511 289.166 L167.856 288.937 L168.165 288.796 L168.701 288.578 L169.143 288.434 L170.005 288.107 L171.163 287.701 L171.921 287.410 L172.421 287.213 L172.714 287.042 L172.953 286.836 L173.272 286.419 L173.769 285.753 L173.924 285.533 L174.097 285.344 L174.301 285.219 L174.501 285.152 L174.828 285.076 L175.263 285.023 L175.648 284.924 L176.198 284.762 L176.823 284.512 L178.277 283.925 L179.289 283.510"/>
      <path class="atlas-context-path atlas-context-radial" data-path-id="mlit.n06-2025.feature.0909.part.000" data-source-feature-id="mlit.n06-2025.feature.0909" data-source-record-id="EA02_177001" data-route-name-ja="首都高速4号新宿線" d="M164.702 262.603 L166.297 261.762 L166.687 261.509 L166.976 261.290 L168.364 260.201 L168.946 259.721 L170.857 258.101 L172.485 260.930 L172.946 261.700 L173.118 262.003 L173.279 262.149 L173.730 262.328 L174.102 262.306 L174.607 262.165 L175.085 261.963 L175.312 261.812 L176.151 261.178 L176.489 261.026 L176.707 260.998 L176.973 261.066 L177.290 261.245 L178.145 261.745 L178.601 261.998 L178.756 262.037 L178.989 262.037 L180.005 261.841 L180.850 261.683 L181.683 261.509 L181.961 261.413 L182.310 261.195 L182.627 261.009 L182.911 260.858 L183.294 260.802 L184.238 260.740 L185.115 260.728 L185.604 260.728 L185.915 260.818 L186.787 261.026 L187.743 261.178 L188.793 261.324 L189.543 261.464 L190.736 261.660 L191.845 261.878 L193.908 262.228 L194.419 262.306 L194.930 262.357 L195.324 262.346 L195.740 262.295 L196.302 262.071 L196.685 261.863 L197.507 261.425 L198.446 260.936 L199.267 260.527 L199.629 260.437 L200.029 260.330 L200.506 260.229 L200.900 260.251 L201.368 260.443 L201.712 260.633 L202.095 260.846 L202.639 261.150 L203.089 261.447 L203.500 261.953 L203.595 262.161 L203.800 262.738 L203.900 262.963 L203.989 263.076 L204.139 263.215 L204.306 263.300 L204.478 263.361 L204.894 263.445 L205.311 263.479 L205.944 263.502 L206.327 263.513 L207.055 263.468 L207.938 263.390 L208.782 263.283 L209.587 263.137 L210.959 262.834 L212.436 262.481 L213.760 262.202"/>
      <path class="atlas-context-path atlas-context-radial" data-path-id="mlit.n06-2025.feature.0910.part.000" data-source-feature-id="mlit.n06-2025.feature.0910" data-source-record-id="EA02_177002" data-route-name-ja="首都高速4号新宿線" d="M136.876 272.916 L137.421 272.602 L138.143 272.147 L138.882 271.619 L139.165 271.513 L139.826 271.373 L141.531 271.047 L142.393 270.923 L142.854 270.861 L143.209 270.782 L143.487 270.654 L144.225 270.301 L144.589 270.141 L145.042 269.991 L145.941 269.671 L147.608 269.166 L148.569 268.840 L150.074 268.307 L151.729 267.718 L152.562 267.431 L153.440 267.106 L154.995 266.573 L155.862 266.253 L156.656 265.972 L158.300 265.354 L159.949 264.725 L160.298 264.613 L161.665 264.136 L162.093 263.985 L162.565 263.794 L163.270 263.451 L163.970 263.058 L164.702 262.603"/>
      <path class="atlas-context-path atlas-context-radial" data-path-id="mlit.n06-2025.feature.0911.part.000" data-source-feature-id="mlit.n06-2025.feature.0911" data-source-record-id="EA02_177003" data-route-name-ja="首都高速4号新宿線" d="M111.329 264.638 L112.305 265.035 L113.143 265.444 L113.744 265.764 L114.865 266.471 L115.665 267.106 L116.337 267.830 L116.987 268.616 L117.831 269.543 L118.359 270.093 L118.731 270.440 L118.953 270.631 L119.386 270.985 L119.636 271.159 L119.970 271.294 L120.270 271.344 L121.119 271.501 L121.892 271.625 L122.780 271.788 L123.546 271.923 L124.430 272.007 L125.124 272.141 L125.546 272.243 L125.929 272.372 L126.646 272.647 L127.579 273.017 L128.334 273.348 L129.057 273.629 L129.623 273.859 L129.962 273.982 L130.356 274.073 L130.756 274.100 L131.578 274.067 L132.545 273.966 L133.788 273.786 L135.494 273.466 L136.188 273.270 L136.876 272.916"/>
      <path class="atlas-context-path atlas-context-radial" data-path-id="mlit.n06-2025.feature.0912.part.000" data-source-feature-id="mlit.n06-2025.feature.0912" data-source-record-id="EA02_178001" data-route-name-ja="首都高速5号池袋線" d="M219.011 245.740 L219.077 246.217 L219.155 246.729 L219.211 247.076 L219.321 247.429 L219.440 247.691 L219.529 247.832 L219.684 248.001 L219.943 248.181 L220.236 248.353 L220.385 248.421 L220.924 248.659 L221.228 248.876 L221.419 249.075 L221.629 249.359 L221.800 249.633 L222.107 250.251 L222.560 251.134"/>
      <path class="atlas-context-path atlas-context-radial" data-path-id="mlit.n06-2025.feature.0913.part.000" data-source-feature-id="mlit.n06-2025.feature.0913" data-source-record-id="EA02_178002" data-route-name-ja="首都高速5号池袋線" d="M198.658 224.673 L198.746 224.770 L198.947 225.114 L199.087 225.451 L199.726 226.938 L200.078 227.784 L200.386 228.522 L200.738 229.337 L201.164 230.427 L201.575 231.369 L201.660 231.575 L201.741 231.755 L201.857 231.942 L201.964 232.073 L202.293 232.447 L202.597 232.679 L203.079 232.960 L203.282 233.050 L203.916 233.376 L204.316 233.589 L204.916 233.866 L205.349 234.023 L205.739 234.139 L206.057 234.195 L206.557 234.300 L207.386 234.465 L208.202 234.603 L209.109 234.772 L209.954 234.917 L211.006 235.145 L211.409 235.243 L211.643 235.370 L211.814 235.632 L211.880 235.756 L211.951 235.977 L212.139 236.760 L212.228 237.140 L212.417 238.039 L212.636 238.869 L212.799 239.244 L212.850 239.374 L213.035 239.648 L213.273 239.831 L213.436 239.918 L213.617 239.973 L213.806 239.985 L214.587 239.988 L215.555 239.985 L216.470 240.000 L216.762 240.104 L216.896 240.171 L217.033 240.288 L217.151 240.449 L217.258 240.632 L217.402 240.890 L217.536 241.205 L217.881 242.017 L218.225 242.833 L218.395 243.252 L218.551 243.623 L218.666 243.911 L218.785 244.233 L218.825 244.472 L218.914 245.038 L218.961 245.358 L219.011 245.740"/>
      <path class="atlas-context-path atlas-context-radial" data-path-id="mlit.n06-2025.feature.0914.part.000" data-source-feature-id="mlit.n06-2025.feature.0914" data-source-record-id="EA02_178003" data-route-name-ja="首都高速5号池袋線" d="M184.747 204.620 L185.402 205.053 L186.180 205.505 L186.595 205.767 L186.987 206.029 L187.592 206.400 L187.884 206.594 L188.147 206.770 L188.640 207.077 L188.955 207.283 L189.077 207.421 L189.199 207.590 L189.328 207.845 L189.648 208.473 L189.825 208.821 L190.077 209.270 L190.407 209.723 L190.966 210.539 L191.088 210.819 L191.129 211.408 L191.197 212.975 L191.242 214.564 L191.281 215.572 L191.322 216.122 L191.429 216.646 L191.555 216.878 L191.770 217.149 L191.903 217.309 L192.400 217.754 L193.088 218.312 L193.484 218.641 L194.093 219.116 L194.548 219.491 L195.219 220.015 L195.363 220.139 L195.618 220.333 L195.797 220.593 L195.902 220.885 L195.978 221.336 L196.044 221.714 L196.122 221.973 L196.224 222.238 L196.571 222.886 L196.904 223.544 L197.067 223.810 L197.285 224.053 L197.448 224.146 L197.808 224.307 L197.991 224.358 L198.228 224.433 L198.658 224.673"/>
      <path class="atlas-context-path atlas-context-radial" data-path-id="mlit.n06-2025.feature.0915.part.000" data-source-feature-id="mlit.n06-2025.feature.0915" data-source-record-id="EA02_178004" data-route-name-ja="首都高速5号池袋線" d="M138.604 160.974 L139.208 161.184 L139.741 161.374 L140.668 161.712 L141.402 161.952 L142.336 162.259 L143.150 162.536 L143.908 162.792 L144.812 163.103 L145.671 163.350 L146.523 163.560 L147.401 163.777 L148.286 163.990 L149.131 164.211 L149.561 164.323 L150.009 164.435 L150.857 164.641 L151.246 164.724 L151.709 164.817 L152.579 164.918 L153.450 165.015 L154.217 165.091 L155.980 165.285 L156.513 165.330 L156.928 165.525 L157.146 165.712 L157.232 165.850 L157.295 166.033 L157.313 166.291 L157.321 166.726 L157.389 167.027 L157.502 167.329 L157.643 167.516 L157.991 167.912 L158.377 168.252 L158.639 168.462 L159.029 168.721 L159.392 168.975 L159.691 169.165 L160.129 169.413 L160.781 169.709 L161.118 169.858 L162.105 170.144 L162.696 170.333 L164.229 170.816 L165.092 171.089 L166.333 171.505 L166.797 171.666 L167.126 171.815 L167.348 172.014 L167.533 172.118 L168.289 172.355 L169.059 172.579 L169.837 172.803 L170.770 173.070 L171.545 173.286 L172.526 173.555 L172.786 173.653 L172.978 173.751 L173.234 173.919 L173.529 174.207 L173.707 174.466 L173.819 174.682 L174.257 175.475 L174.612 176.086 L174.768 176.310 L175.238 176.685 L175.979 177.242 L176.735 177.822 L177.212 178.129 L177.450 178.271 L178.231 178.518 L179.168 178.701 L180.068 178.862 L180.331 178.937 L180.628 179.076 L180.750 179.177 L180.864 179.379 L180.998 179.659 L181.268 180.472 L181.517 181.251 L181.646 181.689 L181.905 182.486 L182.127 183.148 L182.479 184.316 L183.189 186.585 L183.878 188.786 L184.389 190.485 L184.804 191.832 L184.686 194.184 L184.641 195.560 L184.471 199.960 L184.433 200.934 L184.308 201.562 L184.130 202.124 L183.863 202.618 L183.373 203.390 L183.584 203.604 L184.069 204.072 L184.747 204.620"/>
      <path class="atlas-context-path atlas-context-radial" data-path-id="mlit.n06-2025.feature.0916.part.000" data-source-feature-id="mlit.n06-2025.feature.0916" data-source-record-id="EA02_178005" data-route-name-ja="首都高速5号池袋線" d="M137.930 143.676 L137.755 144.148 L137.481 144.959 L137.177 145.831 L136.948 146.584 L136.807 146.958 L136.674 147.392 L136.403 148.200 L136.177 148.840 L135.874 149.757 L135.600 150.700 L135.322 151.456 L135.040 152.288 L134.777 153.054 L134.466 153.979 L134.318 154.450 L134.166 154.982 L134.027 155.496 L133.936 155.914 L133.829 156.441 L133.818 156.928 L133.844 157.475 L133.896 157.819 L133.955 158.137 L134.111 158.646 L134.263 159.038 L134.488 159.470 L134.718 159.810 L134.911 160.033 L135.066 160.188 L135.174 160.248 L135.441 160.316 L135.825 160.364 L136.658 160.494 L136.994 160.545 L137.476 160.620 L137.844 160.734 L138.244 160.858 L138.604 160.974"/>
      <path class="atlas-context-path atlas-context-radial" data-path-id="mlit.n06-2025.feature.0917.part.000" data-source-feature-id="mlit.n06-2025.feature.0917" data-source-record-id="EA02_178006" data-route-name-ja="首都高速5号池袋線" d="M132.791 125.319 L132.966 125.522 L133.662 126.520 L134.136 127.242 L134.625 127.894 L135.062 128.567 L135.507 129.223 L135.996 129.881 L136.544 130.686 L136.867 131.161 L137.029 131.404 L137.166 131.666 L137.285 131.962 L137.426 132.336 L137.522 132.576 L137.626 132.808 L137.730 133.118 L137.821 133.418 L137.893 133.872 L138.008 134.803 L138.092 135.659 L138.170 136.513 L138.263 137.355 L138.367 138.242 L138.451 139.077 L138.496 139.428 L138.541 139.937 L138.567 140.255 L138.588 140.854 L138.563 141.142 L138.500 141.610 L138.426 142.006 L138.333 142.482 L138.100 143.253 L137.930 143.676"/>
      <path class="atlas-context-path atlas-context-radial" data-path-id="mlit.n06-2025.feature.0918.part.000" data-source-feature-id="mlit.n06-2025.feature.0918" data-source-record-id="EA02_179001" data-route-name-ja="首都高速6号向島線" d="M263.636 221.719 L263.433 222.773 L263.229 223.690 L263.157 224.037 L263.018 224.552 L262.743 225.374 L262.624 225.654 L262.491 225.882 L262.324 226.146 L261.828 226.885 L261.399 227.443 L260.919 228.029 L260.169 228.907 L259.351 229.880 L259.020 230.255 L258.496 230.876 L258.242 231.147 L258.020 231.322 L257.775 231.479 L257.487 231.675 L257.232 231.848 L257.037 231.967 L256.746 232.167 L256.602 232.306 L256.426 232.535 L255.894 233.323 L255.340 234.120 L254.589 235.217 L254.406 235.488 L254.261 235.775 L254.074 236.258 L253.906 236.640 L253.574 237.415 L253.448 237.721 L253.360 237.937 L253.093 238.476 L252.945 238.746 L252.797 238.982 L252.688 239.128 L252.622 239.245 L252.495 239.497 L252.418 239.641 L252.241 240.050 L252.086 240.489 L251.895 241.031 L251.707 241.589 L251.559 241.949 L251.393 242.324 L251.085 242.977 L250.858 243.426 L250.658 243.785 L250.387 244.192 L250.144 244.590 L249.633 245.289 L249.433 245.552 L249.088 246.001 L248.709 246.470 L248.570 246.646 L248.383 246.979 L248.264 247.222 L248.176 247.395 L248.109 247.571 L248.050 247.797 L247.994 247.987 L247.922 248.293 L247.886 248.436 L247.863 248.629 L247.853 248.752 L247.843 248.958 L247.849 249.211 L247.863 249.434 L247.899 249.737 L247.945 250.183 L247.988 250.515 L248.007 250.818 L248.018 251.011 L247.991 251.184 L247.944 251.385 L247.611 251.705 L247.289 252.058 L247.167 252.239 L247.156 252.514 L247.241 252.827 L247.304 252.940 L247.419 253.136 L247.524 253.287 L248.064 253.975 L248.758 254.810 L249.357 255.525 L249.436 255.645 L249.535 255.821 L249.624 256.001 L249.690 256.197 L249.726 256.390 L249.746 256.627 L249.739 256.746 L249.710 256.873 L249.651 257.002 L249.584 257.079 L249.436 257.262 L249.005 257.678 L248.421 258.248 L248.165 258.488 L247.716 258.894 L247.388 259.176 L247.174 259.354 L246.732 259.669 L246.140 260.028 L245.982 260.134 L245.335 260.550 L244.714 260.862 L243.819 261.352 L243.305 261.651 L243.101 261.761 L242.937 261.844 L242.723 261.901 L242.496 261.937 L242.315 261.940 L242.157 261.921 L242.038 261.901 L241.880 261.820 L241.641 261.624 L241.387 261.362 L241.018 260.956 L240.712 260.573 L240.620 260.424 L240.550 260.257 L240.472 260.041 L240.383 259.665 L240.281 259.113 L240.201 258.830 L240.133 258.677 L239.984 258.501 L239.751 258.318 L239.589 258.218 L239.387 258.101"/>
      <path class="atlas-context-path atlas-context-radial" data-path-id="mlit.n06-2025.feature.0919.part.000" data-source-feature-id="mlit.n06-2025.feature.0919" data-source-record-id="EA02_179002" data-route-name-ja="首都高速6号向島線" d="M274.323 200.303 L273.516 200.740 L273.147 200.943 L272.404 201.335 L271.478 201.771 L270.673 202.136 L270.173 202.372 L269.850 202.551 L269.534 202.737 L269.356 202.916 L269.178 203.152 L268.701 203.882 L268.462 204.292 L268.318 204.544 L268.200 204.808 L268.121 205.205 L268.082 205.547 L268.114 206.026 L268.167 206.751 L268.157 207.253 L268.117 207.524 L268.049 207.806 L267.937 208.122 L267.808 208.432 L267.628 208.754 L267.562 208.874 L267.370 209.204 L267.083 209.640 L266.836 209.973 L266.579 210.279 L266.101 210.855 L265.736 211.354 L265.572 211.610 L265.446 211.867 L265.371 212.032 L265.305 212.199 L265.157 212.615 L264.781 213.639 L264.742 213.779 L264.696 213.928 L264.657 214.201 L264.637 214.434 L264.584 214.861 L264.474 215.693 L264.401 216.233 L264.289 217.377 L264.246 217.916 L264.158 219.067 L263.915 220.239 L263.636 221.719"/>
      <path class="atlas-context-path atlas-context-radial" data-path-id="mlit.n06-2025.feature.0920.part.000" data-source-feature-id="mlit.n06-2025.feature.0920" data-source-record-id="EA02_180001" data-route-name-ja="首都高速6号三郷線" d="M272.247 191.060 L272.108 190.138 L271.970 189.292 L271.847 188.143 L271.758 187.246 L271.672 186.387 L271.602 185.612 L271.551 185.038 L271.530 184.701 L271.530 184.454 L271.576 184.166 L271.742 183.320 L271.963 182.456 L272.130 181.631 L272.325 180.749 L272.496 179.924 L272.701 179.091 L272.793 178.675 L272.897 178.220 L273.091 177.377 L273.266 176.509 L273.453 175.659 L273.667 174.824 L273.840 174.003 L273.996 173.430 L274.181 172.547 L274.473 171.194 L274.678 170.258 L274.916 169.290 L275.163 168.091 L275.314 167.346 L275.527 166.464 L275.662 165.757 L275.851 164.914 L276.023 164.122 L276.207 163.477 L276.322 162.852 L276.450 162.271 L276.631 161.410 L276.817 160.568 L276.995 159.738 L277.207 158.852 L277.394 158.003 L277.582 157.139 L277.763 156.306 L277.880 155.808 L277.937 155.442 L277.940 154.621 L277.845 153.749 L277.662 152.862 L277.430 151.905 L277.359 151.490 L277.295 150.998 L277.240 150.470 L277.207 150.043 L277.224 149.449 L277.245 149.101 L277.291 148.746 L277.416 147.910 L277.518 147.466 L277.646 147.100 L278.133 146.110 L278.598 145.353 L278.796 145.026 L279.098 144.654 L279.468 144.263 L279.755 144.004 L280.404 143.423 L280.701 143.147 L281.125 142.857 L281.828 142.372 L282.552 141.878 L283.269 141.415 L284.008 140.949 L284.743 140.438 L285.502 139.923 L286.208 139.418 L286.837 138.904 L287.486 138.373 L288.129 137.768 L288.626 137.261 L289.751 135.902 L290.156 135.393 L290.449 134.917 L290.788 134.529 L291.271 133.862 L291.807 133.072 L292.300 132.262 L292.758 131.423 L293.159 130.601 L293.503 129.817 L293.827 128.998 L294.128 128.195 L294.455 127.392 L294.774 126.599 L295.101 125.785 L295.410 124.960 L295.726 124.156 L296.034 123.372 L296.364 122.560 L296.674 121.757 L296.997 120.972 L297.355 120.165 L297.678 119.390 L297.994 118.597 L298.377 117.776 L298.779 117.023 L299.208 116.273 L299.755 115.487 L300.223 114.728 L300.802 113.895 L301.274 113.290 L301.842 112.629 L302.111 112.303"/>
      <path class="atlas-context-path atlas-context-radial" data-path-id="mlit.n06-2025.feature.0921.part.000" data-source-feature-id="mlit.n06-2025.feature.0921" data-source-record-id="EA02_181001" data-route-name-ja="首都高速7号小松川線" d="M340.242 238.006 L339.469 238.344 L338.657 238.677 L337.823 239.027 L337.017 239.365 L336.271 239.686 L334.659 240.378 L333.809 240.739 L332.987 241.083 L332.055 241.465 L331.566 241.725 L331.292 241.903 L331.045 242.153 L330.837 242.391 L330.634 242.690 L330.376 243.100 L330.146 243.455 L329.855 243.882 L329.592 244.248 L329.312 244.541 L329.066 244.742 L328.808 244.897 L328.561 245.052 L328.243 245.168 L327.958 245.257 L327.760 245.302 L325.908 245.338 L322.075 245.321 L320.548 245.316 L318.770 245.311 L317.310 245.311 L316.771 245.293 L316.360 245.248 L315.960 245.136 L314.821 244.811 L313.688 244.468 L312.445 244.131 L311.900 243.986 L311.606 243.941 L311.028 243.885 L309.817 243.805 L308.934 243.738 L308.323 243.733 L307.285 243.671 L306.148 243.616 L305.313 243.660 L304.352 243.750 L303.574 243.851 L302.874 243.924 L302.546 243.950 L300.919 244.121 L299.486 244.284 L297.981 244.451 L297.170 244.559 L296.848 244.637 L296.498 244.788 L296.254 244.895 L295.998 245.024 L295.731 245.181 L295.565 245.305 L295.231 245.574 L294.910 245.839 L294.226 246.438 L293.610 246.978 L292.943 247.573 L292.765 247.718 L292.538 247.859 L292.293 247.977 L292.160 248.038 L291.871 248.106 L291.555 248.146 L291.266 248.156 L290.350 248.179 L289.538 248.230 L288.594 248.246 L287.800 248.280 L286.939 248.313 L286.112 248.353 L285.089 248.398 L284.250 248.471 L283.412 248.527 L282.424 248.594 L280.507 248.701 L279.241 248.786 L278.652 248.831 L277.619 248.886 L276.886 248.943 L276.075 248.998 L275.209 249.055 L274.253 249.110 L273.386 249.167 L272.464 249.224 L271.726 249.269 L270.810 249.330 L269.982 249.375 L269.088 249.430 L268.210 249.475 L267.727 249.522 L267.322 249.538 L266.421 249.589 L265.594 249.650 L264.639 249.706 L263.578 249.785 L262.778 249.846 L261.856 249.891 L260.990 249.942 L260.156 249.998 L259.257 250.066 L258.329 250.115 L257.529 250.178 L256.646 250.239 L255.697 250.301 L254.796 250.346 L253.986 250.402 L253.069 250.458 L252.197 250.514 L251.353 250.576 L250.531 250.649 L250.103 250.677 L249.548 250.722 L249.104 250.733 L248.842 250.784 L248.604 250.902 L247.944 251.385"/>
      <path class="atlas-context-path atlas-context-radial" data-path-id="mlit.n06-2025.feature.0922.part.000" data-source-feature-id="mlit.n06-2025.feature.0922" data-source-record-id="EA02_182001" data-route-name-ja="首都高速9号深川線" d="M265.894 296.250 L265.630 294.423 L265.269 291.577 L264.886 288.753 L264.591 286.238 L264.492 285.666 L264.414 285.268 L264.308 284.958 L264.186 284.791 L263.908 284.426 L263.398 283.786 L262.736 282.932 L262.109 282.202 L261.948 282.006 L261.722 281.569 L261.359 280.782 L260.965 279.991 L260.598 279.205 L260.387 278.738 L260.281 278.402 L260.181 277.981 L260.123 277.682 L260.065 276.931 L260.059 276.420 L260.076 275.550 L260.070 274.506 L260.059 273.204 L260.026 272.946 L259.921 272.626 L259.798 272.267 L259.598 271.778 L259.576 271.643 L259.598 271.407 L259.726 270.622 L259.720 270.352 L259.665 270.043 L259.598 269.830 L259.520 269.684 L259.359 269.544 L259.176 269.414 L258.993 269.353 L258.611 269.257 L257.988 269.128 L257.132 268.959 L256.288 268.774 L255.460 268.595 L253.811 268.185 L252.966 267.938 L252.688 267.848 L252.539 267.769 L252.450 267.651 L252.367 267.410 L252.117 266.540 L251.922 265.760 L251.861 265.496 L251.761 265.294 L251.628 265.187 L251.461 265.081 L250.401 264.536 L250.006 264.312 L249.106 263.879 L248.101 263.397 L247.406 263.043 L246.923 262.784 L246.679 262.537 L246.479 262.262 L245.979 261.504 L245.335 260.550"/>
      <path class="atlas-context-path atlas-context-radial" data-path-id="mlit.n06-2025.feature.0923.part.000" data-source-feature-id="mlit.n06-2025.feature.0923" data-source-record-id="EA02_183001" data-route-name-ja="首都高速10号晴海線" d="M248.379 294.027 L249.443 295.795 L250.892 297.983 L252.234 299.938 L253.133 301.319 L253.680 302.245"/>
      <path class="atlas-context-path atlas-context-radial" data-path-id="mlit.n06-2025.feature.0924.part.000" data-source-feature-id="mlit.n06-2025.feature.0924" data-source-record-id="EA02_184001" data-route-name-ja="首都高速11号台場線" d="M243.534 308.970 L243.122 308.365 L242.608 307.654 L241.968 306.900 L241.558 306.346 L241.025 305.600 L240.708 305.151 L240.507 304.909 L240.254 304.666 L239.987 304.427 L239.586 304.157 L239.250 303.953 L238.859 303.811 L238.543 303.714 L238.233 303.675 L237.907 303.655 L237.558 303.661 L237.235 303.682 L236.924 303.719 L236.470 303.835 L236.303 303.890 L236.094 303.960 L235.790 304.060 L235.189 304.262 L234.793 304.432 L234.092 304.730 L233.816 304.868 L233.523 304.990 L233.282 305.067 L233.056 305.153 L232.749 305.230 L232.456 305.279 L232.272 305.302 L232.019 305.290 L231.719 305.266 L231.383 305.183 L231.107 305.087 L230.656 304.924 L229.576 304.488 L228.075 303.892 L225.633 302.924 L224.441 302.428 L224.096 302.283 L223.951 302.219 L223.800 302.109 L223.720 302.046 L223.602 301.926 L223.497 301.783 L223.385 301.600 L223.326 301.464 L223.259 301.268 L223.217 301.124 L223.207 300.998 L223.181 299.933 L223.178 298.746 L223.154 297.515 L223.127 296.025 L223.132 295.812 L223.105 295.506 L223.059 295.273 L222.996 295.037 L222.865 294.724 L222.756 294.488 L222.700 294.241 L222.713 293.906 L222.727 293.663"/>
      <path class="atlas-context-path atlas-context-radial" data-path-id="mlit.n06-2025.feature.0925.part.000" data-source-feature-id="mlit.n06-2025.feature.0925" data-source-record-id="EA02_185001" data-route-name-ja="首都高速八重洲線" d="M229.398 265.979 L229.798 265.564 L230.344 264.660 L230.978 263.462 L231.899 261.664 L232.402 260.673 L233.054 259.475 L233.350 258.727 L233.400 258.015 L233.299 257.686 L233.114 257.375 L232.986 257.107 L232.860 256.808 L232.583 256.247 L232.342 255.803 L232.141 255.428 L231.990 255.179 L231.709 254.687 L231.382 254.130"/>
      <path class="atlas-context-path atlas-context-bayshore" data-path-id="mlit.n06-2025.feature.0926.part.000" data-source-feature-id="mlit.n06-2025.feature.0926" data-source-record-id="EA02_186001" data-route-name-ja="首都高速湾岸線" d="M129.186 567.600 L129.624 567.543 L130.475 567.510 L131.841 567.375 L132.263 567.341 L133.119 567.330 L134.107 567.291 L134.002 564.563 L134.007 563.187 L133.990 561.902 L133.990 560.913 L133.990 559.953 L133.974 558.993 L133.929 557.787 L133.896 557.063 L133.846 556.199 L133.791 554.986 L133.701 554.026 L133.612 553.324 L133.534 552.976 L133.385 552.600 L132.996 551.842 L132.718 551.489 L132.463 551.269 L132.113 551.000 L131.852 550.826 L131.424 550.579 L130.853 550.315 L130.280 550.124 L129.336 549.855 L128.369 549.579 L127.053 549.220 L126.120 548.945 L124.998 548.614 L123.803 548.210 L123.349 548.024 L122.843 547.800 L122.177 547.458 L121.510 547.132"/>
      <path class="atlas-context-path atlas-context-bayshore" data-path-id="mlit.n06-2025.feature.0927.part.000" data-source-feature-id="mlit.n06-2025.feature.0927" data-source-record-id="EA02_186002" data-route-name-ja="首都高速湾岸線" d="M121.510 547.132 L120.888 546.785 L120.404 546.520 L119.905 546.206 L119.488 545.925 L119.127 545.662 L118.655 545.308 L118.150 544.910 L117.528 544.370 L117.044 543.950 L116.384 543.298 L115.750 542.568 L115.400 542.114 L115.067 541.681 L114.673 541.142 L114.384 540.722 L114.128 540.323 L113.945 540.014 L113.734 539.660 L113.579 539.402 L113.395 539.014 L113.217 538.543 L113.112 538.060 L113.023 537.583 L112.984 536.988 L112.956 536.247 L112.956 535.293 L113.012 534.602 L113.084 534.249 L113.242 533.724 L113.523 533.092 L113.790 532.565 L114.104 531.966 L114.417 531.391 L115.134 530.106 L116.067 528.506 L116.705 527.338 L117.577 525.844 L118.172 524.778 L118.538 524.132 L118.777 523.672 L119.116 523.100 L119.393 522.645 L119.799 521.960 L120.271 521.219 L120.599 520.781 L120.960 520.327 L121.421 519.827 L121.838 519.400 L122.132 519.080 L122.537 518.749 L123.010 518.384 L123.388 518.126 L123.704 517.912 L124.137 517.643 L124.587 517.368 L125.048 517.060 L125.603 516.740 L126.314 516.391 L126.725 516.184 L127.253 515.931 L127.658 515.785 L128.259 515.605 L128.975 515.392 L129.725 515.179 L130.408 514.971 L131.080 514.757 L131.996 514.466 L132.580 514.292 L133.046 514.146 L133.885 513.848 L134.696 513.512 L135.506 513.157 L136.190 512.894 L136.595 512.743 L136.984 512.630 L137.445 512.562 L138.112 512.546 L138.483 512.597 L138.867 512.664 L139.245 512.776 L139.905 513.029 L140.728 513.349 L141.583 513.736 L141.955 513.921 L142.299 514.113 L142.605 514.354 L142.999 514.747 L143.322 515.061 L143.944 515.684 L144.455 516.189 L145.110 516.824 L145.565 517.245 L146.043 517.643 L146.426 517.873 L146.684 517.979"/>
      <path class="atlas-context-path atlas-context-bayshore" data-path-id="mlit.n06-2025.feature.0928.part.000" data-source-feature-id="mlit.n06-2025.feature.0928" data-source-record-id="EA02_186003" data-route-name-ja="首都高速湾岸線" d="M146.684 517.979 L147.037 518.098 L147.459 518.177 L148.042 518.222 L148.831 518.232 L149.331 518.154 L149.792 518.042 L150.259 517.857 L150.903 517.553 L151.214 517.380 L151.542 517.178 L152.092 516.813 L152.719 516.397 L153.053 516.150 L153.436 515.835 L153.769 515.511 L153.963 515.269 L154.186 514.932 L154.496 514.437 L154.697 514.078 L154.897 513.534 L154.985 513.057 L155.130 512.142 L155.217 511.205 L155.257 510.772 L155.330 509.627 L155.346 508.105 L155.391 507.000 L155.485 505.613 L155.569 504.625 L155.679 503.311 L155.668 502.475 L155.619 501.858 L155.446 500.633 L155.269 499.736 L155.113 498.983 L154.908 498.147 L154.823 497.796"/>
      <path class="atlas-context-path atlas-context-bayshore" data-path-id="mlit.n06-2025.feature.0929.part.000" data-source-feature-id="mlit.n06-2025.feature.0929" data-source-record-id="EA02_186004" data-route-name-ja="首都高速湾岸線" d="M154.823 497.796 L154.658 497.226 L154.424 496.474 L154.180 495.711 L153.919 495.132 L153.562 494.294 L153.074 493.061 L152.847 492.303 L152.670 491.456 L152.581 490.798 L152.574 490.041 L152.608 489.249 L152.730 488.413 L152.808 487.941 L152.941 487.464 L153.225 486.672 L153.574 485.886 L153.958 485.134 L154.391 484.365 L154.813 483.568 L155.468 482.339 L156.319 480.762 L157.312 478.920 L158.051 477.528 L158.468 476.781 L158.895 475.973 L159.712 474.474 L160.373 473.250 L160.940 472.212 L161.190 471.807 L161.697 471.107"/>
      <path class="atlas-context-path atlas-context-bayshore" data-path-id="mlit.n06-2025.feature.0930.part.000" data-source-feature-id="mlit.n06-2025.feature.0930" data-source-record-id="EA02_186005" data-route-name-ja="首都高速湾岸線" d="M161.697 471.107 L162.183 470.500 L162.747 469.894 L163.148 469.514 L163.568 469.189 L164.212 468.671 L164.612 468.408 L165.027 468.130 L165.461 467.883 L166.555 467.260 L167.421 466.794 L168.471 466.210 L169.582 465.609 L171.254 464.689 L173.786 463.336 L175.391 462.438 L177.597 461.242 L179.269 460.327 L181.240 459.266 L182.757 458.458 L184.917 457.296 L186.450 456.454 L188.294 455.477 L190.060 454.512 L191.471 453.754 L192.454 453.220 L193.954 452.417 L195.131 451.777 L196.103 451.245 L197.370 450.548 L198.503 449.925 L200.147 449.021 L201.691 448.207 L203.018 447.499 L203.979 446.955 L205.212 446.287 L206.868 445.389 L208.111 444.721 L210.033 443.665 L211.139 443.060 L212.155 442.549 L212.618 442.286 L213.727 441.690 L214.966 441.032 L216.043 440.449 L217.021 439.905 L218.265 439.237 L219.426 438.602 L220.126 438.220 L221.092 437.687 L222.242 437.064 L223.386 436.430 L225.069 435.526 L225.824 435.088 L226.713 434.610 L227.774 434.015 L228.640 433.533 L229.834 432.882 L230.845 432.320 L232.095 431.641 L232.623 431.366 L234.306 430.412 L236.294 429.154 L238.405 427.701 L240.532 426.156 L242.776 424.433 L243.975 423.535 L244.647 423.036 L245.159 422.603 L245.897 421.913 L246.264 421.575 L246.753 421.093 L247.025 420.778 L247.430 420.246 L247.891 419.577 L248.213 419.072 L248.602 418.415 L249.058 417.517 L249.428 416.754 L249.608 416.164 L249.890 415.182 L250.346 412.987 L250.668 411.629 L251.179 409.074 L251.457 407.895 L251.996 405.448 L252.168 404.532 L252.252 403.567 L252.357 402.382 L252.357 401.860 L252.346 400.793 L252.252 399.957 L252.174 399.519 L252.023 398.896 L251.835 398.374 L251.601 397.774 L251.357 397.251 L251.113 396.769 L250.687 396.046 L250.158 395.078 L249.741 394.371 L249.307 393.574 L248.863 392.794 L247.747 390.869 L246.947 389.510 L246.314 388.387 L245.597 387.158 L245.317 386.656"/>
      <path class="atlas-context-path atlas-context-bayshore" data-path-id="mlit.n06-2025.feature.0931.part.000" data-source-feature-id="mlit.n06-2025.feature.0931" data-source-record-id="EA02_186006" data-route-name-ja="首都高速湾岸線" d="M245.317 386.656 L244.897 385.945 L244.525 385.289 L244.081 384.508 L243.692 383.796 L243.136 382.858 L242.304 381.398 L241.937 380.803 L241.570 380.214 L241.198 379.675 L240.804 379.192 L240.454 378.760 L240.076 378.417 L239.649 378.002 L239.116 377.520 L238.421 376.974 L237.382 376.250 L234.939 374.730 L233.694 373.977 L232.506 373.253 L230.790 372.219 L227.701 370.350 L226.963 369.907 L226.507 369.610 L226.146 369.335 L225.786 369.037 L225.563 368.801 L225.330 368.514 L225.152 368.245 L225.008 367.970 L224.885 367.672 L224.685 367.140 L224.497 366.466 L224.280 365.747 L224.153 365.220 L223.942 364.316 L223.603 362.929 L223.314 361.739 L223.047 360.667 L222.708 359.370 L222.464 358.416 L222.095 356.962"/>
      <path class="atlas-context-path atlas-context-bayshore" data-path-id="mlit.n06-2025.feature.0932.part.000" data-source-feature-id="mlit.n06-2025.feature.0932" data-source-record-id="EA02_186007" data-route-name-ja="首都高速湾岸線" d="M222.095 356.962 L221.953 356.412 L221.675 355.317 L221.553 354.867 L221.369 354.054 L221.270 353.459 L221.203 353.100 L221.175 352.600 L221.142 351.702 L221.158 351.157 L221.153 350.247 L221.161 348.612 L221.175 345.796 L221.167 343.083 L221.206 342.324 L221.209 341.310 L221.186 339.390 L221.222 337.355 L221.200 335.616 L221.214 333.046 L221.181 331.301 L221.165 330.370 L221.170 329.589 L221.214 329.281 L221.309 328.949 L221.431 328.489 L221.564 328.107 L221.964 327.422 L222.298 326.906 L222.658 326.451"/>
      <path class="atlas-context-path atlas-context-bayshore" data-path-id="mlit.n06-2025.feature.0933.part.000" data-source-feature-id="mlit.n06-2025.feature.0933" data-source-record-id="EA02_186008" data-route-name-ja="首都高速湾岸線" d="M222.658 326.451 L223.436 325.660 L224.825 324.318 L226.779 322.494 L228.513 320.838 L230.850 318.620 L232.034 317.491 L233.084 316.436 L233.878 315.673 L234.204 315.388"/>
      <path class="atlas-context-path atlas-context-bayshore" data-path-id="mlit.n06-2025.feature.0934.part.000" data-source-feature-id="mlit.n06-2025.feature.0934" data-source-record-id="EA02_186009" data-route-name-ja="首都高速湾岸線" d="M234.204 315.388 L234.689 314.976 L235.322 314.460 L235.705 314.169 L236.183 313.826 L236.638 313.517 L237.599 312.866 L238.627 312.182 L239.732 311.468 L240.826 310.761 L241.387 310.396 L242.387 309.722 L243.076 309.262 L243.534 308.970 L244.826 308.134 L246.248 307.207 L247.369 306.455 L247.835 306.119 L248.624 305.607 L249.419 305.063 L250.457 304.362 L251.285 303.828 L251.996 303.345 L252.807 302.823 L253.680 302.245 L254.190 301.908 L254.912 301.425 L255.639 300.932 L256.204 300.547"/>
      <path class="atlas-context-path atlas-context-bayshore" data-path-id="mlit.n06-2025.feature.0935.part.000" data-source-feature-id="mlit.n06-2025.feature.0935" data-source-record-id="EA02_186010" data-route-name-ja="首都高速湾岸線" d="M256.204 300.547 L256.795 300.168 L257.256 299.859 L257.811 299.544 L258.172 299.365 L258.699 299.152 L259.449 298.820 L260.311 298.478 L261.244 298.124 L262.666 297.552 L264.832 296.664 L265.894 296.250"/>
      <path class="atlas-context-path atlas-context-bayshore" data-path-id="mlit.n06-2025.feature.0936.part.000" data-source-feature-id="mlit.n06-2025.feature.0936" data-source-record-id="EA02_186011" data-route-name-ja="首都高速湾岸線" d="M265.894 296.250 L267.431 295.627 L269.308 294.897 L269.636 294.830 L270.102 294.785 L271.802 294.588 L274.107 294.335 L276.279 294.094 L279.128 293.746 L279.864 293.656"/>
      <path class="atlas-context-path atlas-context-bayshore" data-path-id="mlit.n06-2025.feature.0937.part.000" data-source-feature-id="mlit.n06-2025.feature.0937" data-source-record-id="EA02_186012" data-route-name-ja="首都高速湾岸線" d="M279.864 293.656 L281.850 293.432 L283.638 293.224 L284.977 293.112 L285.410 293.106 L286.349 293.128 L288.043 293.224 L288.959 293.313 L290.809 293.460 L293.469 293.684 L294.358 293.740 L295.315 293.800 L296.341 293.874 L297.107 293.942 L298.346 294.054 L299.434 294.172 L300.356 294.284 L300.801 294.357 L301.145 294.470 L301.595 294.632 L302.361 294.992 L303.467 295.474 L304.445 295.912 L305.944 296.564 L308.227 297.557 L309.954 298.321 L311.104 298.837 L313.154 299.747 L315.070 300.589 L316.281 301.139 L318.097 301.981 L318.545 302.156 L318.963 302.318 L319.385 302.452 L319.763 302.542 L320.102 302.615 L320.485 302.672 L321.002 302.728 L321.502 302.767 L322.362 302.733 L322.813 302.688 L323.307 302.565 L323.901 302.363 L324.540 302.059 L324.895 301.896 L325.329 301.611 L325.639 301.397 L326.051 301.054 L326.339 300.791 L327.148 300.007 L327.712 299.404 L328.483 298.602 L329.327 297.709 L331.450 295.531 L332.404 294.532"/>
      <path class="atlas-context-path atlas-context-bayshore" data-path-id="mlit.n06-2025.feature.0938.part.000" data-source-feature-id="mlit.n06-2025.feature.0938" data-source-record-id="EA02_186013" data-route-name-ja="首都高速湾岸線" d="M367.295 257.709 L364.113 260.142 L362.862 261.137 L361.969 261.971 L358.469 265.701 L355.991 268.424 L355.561 268.860 L354.871 269.623 L354.277 270.269 L353.639 270.915 L353.172 271.431 L352.866 271.796 L352.545 272.167 L352.155 272.627 L351.861 272.998 L351.394 273.615 L350.928 274.215 L350.506 274.771 L349.884 275.580 L349.318 276.337 L348.857 276.944 L348.373 277.578 L347.906 278.179 L347.484 278.752 L347.040 279.296 L346.568 279.891 L346.057 280.469 L345.752 280.795 L345.268 281.277 L344.774 281.794 L344.413 282.170 L343.974 282.620 L343.397 283.203 L342.846 283.776 L342.392 284.253 L341.508 285.151 L340.997 285.673 L340.564 286.122 L339.575 287.150 L338.992 287.739 L338.309 288.424 L337.548 289.205 L337.003 289.800 L336.276 290.540 L335.631 291.220 L335.071 291.781 L334.510 292.359 L333.888 292.999 L333.521 293.392 L332.994 293.937 L332.404 294.532"/>
      <path class="atlas-context-path atlas-context-bayshore" data-path-id="mlit.n06-2025.feature.0939.part.000" data-source-feature-id="mlit.n06-2025.feature.0939" data-source-record-id="EA02_186014" data-route-name-ja="首都高速湾岸線" d="M216.461 365.315 L218.149 363.603 L218.532 363.138 L218.821 362.767 L219.238 362.301 L219.921 361.509 L220.443 360.920 L220.926 360.381 L221.343 359.898 L221.643 359.432 L221.788 359.152 L221.953 358.702 L222.076 358.259 L222.120 357.860 L222.095 356.962"/>
      <path class="atlas-context-path atlas-context-kanagawa" data-path-id="mlit.n06-2025.feature.0940.part.000" data-source-feature-id="mlit.n06-2025.feature.0940" data-source-record-id="EA02_187001" data-route-name-ja="首都高速神奈川1号横羽線" d="M213.546 384.816 L212.926 386.563 L212.479 387.665 L212.190 388.338 L212.134 388.610 L212.056 388.919 L212.018 389.299 L211.940 390.447 L211.876 391.186 L211.808 391.394 L211.659 391.860 L211.343 392.749 L211.022 393.503 L210.771 394.289 L210.645 394.610 L210.430 395.230 L210.300 395.712 L210.278 396.082 L210.274 396.379 L210.269 397.708 L210.263 398.708 L210.303 399.384 L210.303 400.231 L210.325 401.068 L210.308 401.860 L210.253 402.107 L210.014 402.691 L209.646 403.445 L209.280 404.169 L208.901 404.911 L208.532 405.643 L208.138 406.386 L207.759 407.114 L207.382 407.859 L206.995 408.598 L206.799 408.932 L206.654 409.126 L206.515 409.262 L205.883 409.825 L205.287 410.363 L204.652 410.908 L204.027 411.435 L203.399 411.977 L202.798 412.486 L202.149 413.042 L201.520 413.605 L200.871 414.150 L200.260 414.685 L199.625 415.255 L199.018 415.796 L198.393 416.320 L198.126 416.549 L197.932 416.740 L197.804 416.894 L197.559 417.213 L197.321 417.543 L196.863 418.260 L196.400 418.928 L195.948 419.601 L195.468 420.304 L195.276 420.563 L195.092 420.725 L194.772 420.900 L194.108 421.187 L193.200 421.598 L191.833 422.169 L190.672 422.675 L190.310 422.826 L189.618 423.106 L189.220 423.292 L188.801 423.518 L188.489 423.766 L187.853 424.367 L186.988 425.204 L186.389 425.742 L186.174 425.892 L185.471 426.323 L185.063 426.574 L184.843 426.736 L184.165 427.238 L183.498 427.769 L182.852 428.277 L182.223 428.801 L181.574 429.297 L180.925 429.778 L180.459 430.106 L180.202 430.295 L179.773 430.527 L179.489 430.661"/>
      <path class="atlas-context-path atlas-context-kanagawa" data-path-id="mlit.n06-2025.feature.0941.part.000" data-source-feature-id="mlit.n06-2025.feature.0941" data-source-record-id="EA02_187002" data-route-name-ja="首都高速神奈川1号横羽線" d="M179.489 430.661 L179.090 430.845 L178.614 431.082 L178.322 431.244 L177.878 431.577 L177.520 431.911 L177.140 432.270 L176.895 432.496 L176.579 432.761 L176.196 433.045 L175.595 433.399 L174.875 433.790 L174.251 434.106 L173.589 434.476 L172.187 435.201 L171.456 435.562 L170.828 435.909 L170.235 436.104 L169.075 436.440 L168.535 436.601 L167.953 436.818 L167.459 437.047 L166.749 437.366 L165.681 437.851 L164.311 438.489 L163.277 438.970 L161.375 439.838 L160.132 440.404 L158.918 440.953 L158.272 441.243 L157.386 441.681 L156.991 441.850 L156.575 442.063 L156.182 442.247 L155.427 442.643 L155.084 442.796 L154.150 443.262 L153.521 443.598 L152.708 444.028 L151.691 444.555 L151.033 444.827 L150.294 445.094 L149.879 445.116 L149.243 445.129 L148.474 445.117 L148.155 445.195 L147.892 445.318 L147.253 445.923 L146.217 446.884 L145.812 447.240 L145.532 447.408 L145.337 447.471 L144.814 447.709 L144.115 447.925 L142.614 448.391 L141.315 448.895 L140.686 449.169 L140.214 449.435 L139.710 449.758 L139.344 449.976 L138.645 450.220 L138.027 450.421 L137.371 450.651 L136.529 450.970 L135.883 451.243 L135.105 451.630 L134.403 452.017 L133.902 452.362 L133.476 452.698 L133.025 453.054 L132.387 453.580 L131.900 454.058 L131.385 454.564 L130.803 455.475 L130.304 456.161 L129.563 457.119 L129.256 457.377 L128.825 457.684"/>
      <path class="atlas-context-path atlas-context-kanagawa" data-path-id="mlit.n06-2025.feature.0942.part.000" data-source-feature-id="mlit.n06-2025.feature.0942" data-source-record-id="EA02_187003" data-route-name-ja="首都高速神奈川1号横羽線" d="M128.825 457.684 L128.216 457.921 L127.672 458.143 L127.391 458.350 L126.926 458.927 L126.542 459.415 L125.861 460.306 L125.159 461.215 L124.161 462.533 L123.762 463.053 L123.540 463.302 L123.255 463.438 L122.511 463.785 L121.491 464.259 L121.013 464.479 L120.807 464.627 L120.583 464.821 L120.277 465.183 L119.844 465.772"/>
      <path class="atlas-context-path atlas-context-kanagawa" data-path-id="mlit.n06-2025.feature.0943.part.000" data-source-feature-id="mlit.n06-2025.feature.0943" data-source-record-id="EA02_187004" data-route-name-ja="首都高速神奈川1号横羽線" d="M119.844 465.772 L119.305 466.546 L118.918 467.041 L118.787 467.231 L118.762 467.443 L118.744 467.974 L118.790 469.225 L118.788 469.767 L118.795 471.182 L118.788 471.937 L118.816 472.358 L118.845 472.516 L119.016 472.925 L119.330 473.576 L119.805 474.311 L120.346 475.105 L121.049 476.108 L121.987 477.445 L122.501 478.178 L122.962 478.695 L123.660 479.228 L124.385 479.806 L124.648 479.993 L125.074 480.348 L125.514 480.798 L125.700 481.085 L125.784 481.424 L125.796 481.918 L125.771 482.425 L125.707 482.832 L125.345 483.802 L125.258 484.042 L125.228 484.410 L125.316 484.758 L125.707 485.352 L126.774 486.842 L127.772 488.035 L128.301 488.579 L128.811 488.986 L129.527 489.466 L130.601 490.149 L130.916 490.333"/>
      <path class="atlas-context-path atlas-context-kanagawa" data-path-id="mlit.n06-2025.feature.0944.part.000" data-source-feature-id="mlit.n06-2025.feature.0944" data-source-record-id="EA02_187005" data-route-name-ja="首都高速神奈川1号横羽線" d="M130.916 490.333 L131.498 490.683 L132.002 491.018 L132.506 491.398 L132.835 491.597 L133.047 491.905 L133.446 493.378"/>
      <path class="atlas-context-path atlas-context-kanagawa" data-path-id="mlit.n06-2025.feature.0945.part.000" data-source-feature-id="mlit.n06-2025.feature.0945" data-source-record-id="EA02_188001" data-route-name-ja="首都高速神奈川2号三ツ沢線" d="M112.425 464.494 L112.632 464.585 L112.987 464.679 L113.320 464.728 L113.713 464.783 L114.254 464.851 L114.646 464.896 L115.131 464.952 L115.806 465.027 L116.550 465.136 L117.261 465.211 L118.151 465.349 L118.766 465.420 L119.429 465.573 L119.844 465.772"/>
      <path class="atlas-context-path atlas-context-kanagawa" data-path-id="mlit.n06-2025.feature.0946.part.000" data-source-feature-id="mlit.n06-2025.feature.0946" data-source-record-id="EA02_188002" data-route-name-ja="首都高速神奈川2号三ツ沢線" d="M100.200 458.751 L100.550 459.105 L101.094 459.695 L101.433 459.992 L101.849 460.284 L102.149 460.463 L102.493 460.562 L103.206 460.860 L103.429 460.994 L103.843 461.421 L104.102 461.736 L104.362 461.923 L104.762 462.177 L105.428 462.380 L106.006 462.484 L106.643 462.484 L107.319 462.351 L107.934 462.201 L108.282 462.205 L108.479 462.213 L108.727 462.272 L108.905 462.355 L109.223 462.512 L109.468 462.643 L109.701 462.770 L110.105 463.018 L110.816 463.478 L111.127 463.631 L111.542 463.882 L111.883 464.147 L112.214 464.358 L112.425 464.494"/>
      <path class="atlas-context-path atlas-context-kanagawa" data-path-id="mlit.n06-2025.feature.0947.part.000" data-source-feature-id="mlit.n06-2025.feature.0947" data-source-record-id="EA02_189001" data-route-name-ja="首都高速神奈川3号狩場線" d="M148.474 492.516 L149.963 494.111 L150.421 494.386 L150.693 494.445 L151.092 494.475 L151.549 494.445 L152.036 494.189 L152.328 493.973 L152.571 493.687 L152.736 493.265 L152.805 492.871 L152.847 492.303"/>
      <path class="atlas-context-path atlas-context-kanagawa" data-path-id="mlit.n06-2025.feature.0948.part.000" data-source-feature-id="mlit.n06-2025.feature.0948" data-source-record-id="EA02_189002" data-route-name-ja="首都高速神奈川3号狩場線" d="M144.346 488.817 L144.950 488.955 L145.407 489.269 L147.637 491.689 L148.474 492.516"/>
      <path class="atlas-context-path atlas-context-kanagawa" data-path-id="mlit.n06-2025.feature.0949.part.000" data-source-feature-id="mlit.n06-2025.feature.0949" data-source-record-id="EA02_189003" data-route-name-ja="首都高速神奈川3号狩場線" d="M135.330 492.499 L137.532 491.267 L139.586 490.234 L141.221 489.536 L142.108 489.172 L142.935 488.916 L143.558 488.866 L144.346 488.817"/>
      <path class="atlas-context-path atlas-context-kanagawa" data-path-id="mlit.n06-2025.feature.0950.part.000" data-source-feature-id="mlit.n06-2025.feature.0950" data-source-record-id="EA02_189004" data-route-name-ja="首都高速神奈川3号狩場線" d="M133.446 493.378 L134.154 493.156 L134.885 492.811 L135.330 492.499"/>
      <path class="atlas-context-path atlas-context-kanagawa" data-path-id="mlit.n06-2025.feature.0951.part.000" data-source-feature-id="mlit.n06-2025.feature.0951" data-source-record-id="EA02_189005" data-route-name-ja="首都高速神奈川3号狩場線" d="M84.988 490.716 L87.071 490.115 L88.921 489.801 L91.130 489.456 L91.967 489.447 L93.145 489.663 L94.683 490.293 L96.484 491.366 L97.360 491.936 L98.090 492.231 L99.628 492.723 L100.942 492.860 L101.945 492.920 L102.344 493.009 L102.870 493.265 L103.454 493.697 L103.901 494.307 L104.349 494.867 L104.875 495.192 L105.673 495.399 L106.656 495.291 L107.785 495.163 L108.262 495.163 L108.691 495.232 L109.294 495.498 L111.620 497.170 L113.119 498.204 L113.801 498.538 L114.862 498.843 L116.039 498.941 L117.344 498.932 L118.492 498.794 L119.794 498.535 L121.308 498.019 L122.992 497.286 L125.397 496.110 L126.896 495.362 L127.796 494.939 L128.229 494.821 L128.609 494.801 L130.128 494.654 L130.833 494.428 L131.631 494.034 L132.246 493.736 L132.704 493.599 L133.446 493.378"/>
      <path class="atlas-context-path atlas-context-kanagawa" data-path-id="mlit.n06-2025.feature.0952.part.000" data-source-feature-id="mlit.n06-2025.feature.0952" data-source-record-id="EA02_189005" data-route-name-ja="首都高速神奈川3号狩場線" d="M117.344 498.932 L118.094 495.872"/>
      <path class="atlas-context-path atlas-context-kanagawa" data-path-id="mlit.n06-2025.feature.0953.part.000" data-source-feature-id="mlit.n06-2025.feature.0953" data-source-record-id="EA02_190001" data-route-name-ja="首都高速神奈川5号大黒線" d="M161.697 471.107 L161.355 470.615 L161.172 470.298 L160.993 469.848 L160.877 469.421 L160.802 468.976 L160.639 468.101 L160.521 467.248 L160.380 466.358 L160.223 465.501 L160.078 464.641 L159.918 463.726 L159.765 462.854 L159.663 462.381 L159.549 461.996 L159.247 461.136 L159.121 460.727 L159.026 460.281 L158.802 458.989 L158.766 458.522 L158.726 457.628 L158.683 456.733 L158.647 455.845 L158.647 455.314 L158.686 454.913 L158.797 454.027 L158.910 453.145 L159.016 452.255 L159.121 451.391 L159.237 450.493 L159.261 450.195 L159.249 449.968 L159.157 449.662 L158.805 449.059 L158.124 447.794 L156.353 444.405 L155.916 443.566 L155.427 442.643"/>
      <path class="atlas-context-path atlas-context-kanagawa" data-path-id="mlit.n06-2025.feature.0954.part.000" data-source-feature-id="mlit.n06-2025.feature.0954" data-source-record-id="EA02_191001" data-route-name-ja="首都高速神奈川6号川崎線" d="M249.428 416.754 L248.768 416.395 L248.114 415.969 L247.504 415.581 L246.481 414.893 L245.835 414.390 L244.930 413.741 L244.383 413.354 L243.712 412.848 L242.988 412.332 L242.022 411.635 L240.855 410.789 L240.049 410.190 L238.810 409.294 L237.404 408.296 L236.016 407.286 L235.306 406.765 L234.617 406.263 L233.198 405.223 L231.817 404.222 L230.180 403.042 L229.214 402.314 L228.274 401.651 L226.900 400.643 L225.786 399.836 L224.827 399.147 L224.387 398.843 L223.911 398.552 L223.559 398.372"/>
      <path class="atlas-context-path atlas-context-kanagawa" data-path-id="mlit.n06-2025.feature.0955.part.000" data-source-feature-id="mlit.n06-2025.feature.0955" data-source-record-id="EA02_191002" data-route-name-ja="首都高速神奈川6号川崎線" d="M223.559 398.372 L223.019 398.233 L222.281 398.208 L221.270 398.222 L219.502 398.351 L218.302 398.462 L217.318 398.524 L215.519 398.650 L214.245 398.763 L212.690 398.886 L212.147 398.896 L211.852 398.850 L211.582 398.771 L211.202 398.728 L210.948 398.718 L210.561 398.710 L210.263 398.708"/>
      <path class="atlas-context-path atlas-context-radial" data-path-id="mlit.n06-2025.feature.0956.part.000" data-source-feature-id="mlit.n06-2025.feature.0956" data-source-record-id="EA02_193001" data-route-name-ja="首都高速川口線" d="M226.945 179.251 L226.749 178.730 L226.479 177.912 L226.295 177.356 L226.188 177.084 L225.997 176.666 L225.810 176.325 L225.404 175.731 L224.733 174.918 L224.445 174.602 L224.133 174.307 L223.593 173.970 L222.993 173.641 L221.815 173.034 L221.031 172.640 L220.235 172.256 L219.465 171.859 L218.907 171.499 L217.772 170.693 L216.853 170.006 L215.792 169.180 L215.144 168.638 L214.553 168.052 L214.044 167.372 L213.770 166.895 L213.625 166.577 L213.476 166.116 L213.426 165.768 L213.401 165.187 L213.430 164.925 L213.495 164.616 L213.608 164.216 L213.686 163.964 L213.813 163.655 L214.037 163.197 L214.271 162.785 L214.485 162.411 L214.836 161.823 L215.030 161.564 L215.389 161.209 L215.567 161.063 L216.167 160.754 L216.614 160.571 L217.168 160.292 L217.927 159.926 L218.428 159.603 L218.659 159.405 L218.754 159.320 L219.078 158.979 L219.280 158.732 L219.862 158.043 L220.047 157.838 L220.419 157.362 L220.984 156.698 L221.559 156.031 L222.269 155.202 L222.969 154.377 L223.491 153.768 L224.172 152.875 L224.953 151.813 L225.414 151.171 L225.535 150.931 L225.712 150.514 L225.851 150.045 L225.894 149.826 L225.929 149.374 L225.926 148.965 L225.890 148.599 L225.783 148.083 L225.585 147.215 L225.389 146.365 L225.205 145.511 L224.988 144.662 L224.793 143.787 L224.601 142.925 L224.339 141.886 L224.158 141.021 L224.068 140.637 L223.998 140.311 L223.831 139.310 L223.796 138.930 L223.797 138.265 L223.855 137.313 L223.984 136.395 L224.193 135.258 L224.279 134.659 L224.396 133.766 L224.584 132.553 L224.658 131.481 L224.716 131.062 L224.762 130.334 L224.786 128.881 L224.777 128.352 L224.793 126.987 L224.751 125.972 L224.690 124.960 L224.651 124.476 L224.580 123.989 L224.502 123.437 L224.441 123.092 L224.204 122.346 L223.842 121.184 L223.583 120.298 L222.940 118.440 L222.521 117.074 L222.106 115.277 L221.826 114.022 L221.478 112.695 L221.239 111.866 L221.073 111.450 L220.658 110.621 L220.494 110.292 L220.107 109.467 L219.848 109.033 L219.633 108.673 L219.344 108.212 L219.127 107.885 L218.865 107.530 L218.567 107.161 L218.176 106.680 L217.931 106.432 L217.317 105.758 L216.671 105.167 L215.929 104.607 L215.148 104.104 L214.832 103.933 L214.314 103.717 L213.415 103.434 L212.816 103.266 L211.520 102.871 L210.256 102.483 L209.411 102.236 L208.787 102.047 L207.984 101.824 L207.200 101.569 L206.742 101.382 L206.415 101.199 L206.052 100.920 L205.759 100.611 L205.247 99.940 L204.835 99.187 L204.666 98.757 L204.568 98.364 L204.527 97.965 L204.486 96.254"/>
      <path class="atlas-context-path atlas-context-saitama" data-path-id="mlit.n06-2025.feature.0957.part.000" data-source-feature-id="mlit.n06-2025.feature.0957" data-source-record-id="EA02_194001" data-route-name-ja="首都高速埼玉新都心線" d="M109.275 59.310 L109.843 58.751 L110.380 58.127 L110.808 57.647 L111.374 57.006 L112.045 56.391 L112.632 55.997 L114.524 55.086 L116.767 53.971 L118.130 53.297 L119.017 52.863 L119.959 52.526 L120.517 52.419 L121.149 52.400 L121.396 52.460 L121.691 52.559 L122.033 52.752 L122.450 53.058 L122.728 53.448 L122.883 53.790 L122.978 54.263 L123.035 54.763 L123.260 56.025 L123.484 57.142 L123.553 57.397 L123.674 57.659 L123.892 57.835 L124.228 58.065 L124.509 58.184 L124.810 58.232 L125.348 58.199 L125.880 58.020 L126.176 57.886 L126.603 57.704 L127.009 57.530 L128.003 57.098 L129.071 56.625 L129.481 56.453"/>
      <path class="atlas-context-path atlas-context-saitama" data-path-id="mlit.n06-2025.feature.0958.part.000" data-source-feature-id="mlit.n06-2025.feature.0958" data-source-record-id="EA02_194002" data-route-name-ja="首都高速埼玉新都心線" d="M129.481 56.453 L130.889 55.849 L132.018 55.348 L132.260 55.268 L132.528 55.181 L133.313 54.839 L133.866 54.606 L135.483 53.963 L136.373 53.587 L136.827 53.446 L137.294 53.431 L137.626 53.424 L137.934 53.439 L138.466 53.500 L138.994 53.640 L139.514 53.802 L140.154 54.089 L140.740 54.446 L142.142 55.322 L142.883 55.794 L143.733 56.236 L144.199 56.446 L144.733 56.559 L145.610 56.618 L146.532 56.585 L147.594 56.372 L149.076 55.980 L149.568 55.835"/>
      <path class="atlas-context-path atlas-context-saitama" data-path-id="mlit.n06-2025.feature.0959.part.000" data-source-feature-id="mlit.n06-2025.feature.0959" data-source-record-id="EA02_195001" data-route-name-ja="首都高速埼玉大宮線" d="M132.791 125.319 L132.194 124.502 L131.676 123.742 L130.741 122.384 L128.914 119.761 L127.913 118.341 L127.380 117.609 L126.893 116.961 L126.361 116.257 L125.827 115.532 L125.329 114.812 L124.402 113.437 L123.852 112.603 L123.334 111.849 L123.119 111.509 L122.908 111.046 L122.581 110.206 L122.330 109.336 L121.826 107.597 L121.573 106.677 L121.339 105.824 L121.012 104.626 L120.529 102.889 L120.061 101.183 L119.337 98.586 L118.619 96.018 L118.130 94.318 L117.919 93.491 L117.647 92.597 L117.406 91.781 L117.155 90.928 L116.892 90.046 L116.653 89.196 L116.497 88.300 L116.390 87.425 L116.298 86.557 L116.241 85.681 L116.162 84.771 L116.085 83.889 L115.914 81.830 L115.871 80.988 L115.730 78.874 L115.659 78.014 L115.574 77.131 L115.421 76.259 L115.254 75.366 L115.034 74.520 L114.487 72.842 L113.941 71.149 L113.659 70.353 L113.387 69.492 L112.833 67.864 L112.266 66.214 L111.976 65.351 L111.692 64.552 L111.395 63.664 L111.080 62.857 L110.809 62.054 L110.341 61.071 L110.158 60.668 L109.858 60.167 L109.275 59.310"/>
      <path class="atlas-context-path atlas-context-c2" data-path-id="mlit.n06-2025.feature.1206.part.000" data-source-feature-id="mlit.n06-2025.feature.1206" data-source-record-id="EA02_172010" data-route-name-ja="首都高速中央環状線" d="M170.005 288.107 L169.990 289.242 L170.049 289.698 L170.198 290.081 L170.805 290.847 L171.398 291.431 L176.009 294.860 L177.565 296.392 L177.982 296.793 L180.924 301.143 L182.084 302.939 L182.896 304.184 L185.197 308.452 L185.759 309.404 L186.519 310.658 L186.676 310.818 L187.223 311.251 L187.890 311.702 L189.052 312.448 L190.608 313.433 L192.009 314.390 L195.411 316.346 L197.171 317.650 L197.523 318.004 L197.885 318.300 L198.227 318.505 L198.635 318.642 L199.247 318.619 L199.571 318.562 L200.210 318.596 L201.183 318.688 L201.730 318.859 L202.239 319.132 L202.693 319.511 L203.172 319.921 L203.605 320.263 L204.306 320.742 L204.617 321.056 L204.995 321.809 L205.428 322.684 L205.554 322.905 L206.091 323.315 L206.740 323.475 L207.212 323.532 L207.981 323.543 L208.945 323.509 L210.705 323.110 L214.530 321.879 L216.239 321.248 L216.998 321.043 L217.591 321.111 L218.229 321.436 L218.751 321.737 L219.252 322.298 L219.485 322.941 L219.596 323.447 L219.563 324.404 L219.363 327.865 L219.240 329.630 L219.218 330.943 L219.207 331.572 L219.285 332.037 L219.645 332.311 L220.501 332.666 L220.705 332.756 L220.863 332.861 L221.214 333.046"/>
      <path class="atlas-context-path atlas-context-radial" data-path-id="mlit.n06-2025.feature.1254.part.000" data-source-feature-id="mlit.n06-2025.feature.1254" data-source-record-id="EA02_174005" data-route-name-ja="首都高速1号羽田線" d="M221.214 333.046 L220.312 332.821 L219.932 332.730 L219.478 332.502 L219.144 332.263 L218.839 332.046 L218.190 331.647 L217.801 331.351 L217.614 331.152"/>
      <path class="atlas-context-path atlas-context-kanagawa" data-path-id="mlit.n06-2025.feature.1298.part.000" data-source-feature-id="mlit.n06-2025.feature.1298" data-source-record-id="EA02_347001" data-route-name-ja="首都高速神奈川7号横浜北線" d="M94.758 418.798 L95.308 418.404 L96.170 417.834 L96.605 417.560 L96.976 417.344 L97.400 417.183 L97.662 417.143 L97.850 417.127 L98.620 417.130 L99.176 417.172 L99.621 417.233 L100.036 417.302 L101.336 417.539 L101.882 417.636 L102.514 417.805 L103.432 418.105 L104.107 418.353 L104.590 418.546 L107.076 419.691 L107.830 419.871 L108.379 419.944 L108.956 419.955 L109.612 419.956 L110.390 419.909 L111.135 419.788 L112.669 419.569 L113.478 419.426 L114.425 419.313 L115.276 419.298 L116.270 419.310 L117.263 419.393 L118.276 419.491 L120.283 419.878 L123.132 420.498 L123.900 420.698 L124.510 420.939 L125.587 421.415 L126.576 422.048 L127.269 422.633 L127.903 423.185 L133.660 429.457 L134.901 430.785 L138.030 434.244 L139.468 435.921 L140.441 436.996 L141.394 438.032 L142.333 438.956 L143.157 439.653 L143.792 440.129 L145.208 441.194 L146.501 442.033 L147.390 442.525 L148.043 442.717 L148.591 442.825 L149.249 442.853 L149.782 442.794 L150.372 442.642 L150.943 442.409 L153.017 441.592 L153.421 441.511 L153.786 441.503 L154.113 441.537 L154.414 441.632 L154.693 441.799 L154.931 441.989 L155.123 442.205 L155.427 442.643"/>
      <path class="atlas-context-path atlas-context-radial atlas-context-provisional" data-path-id="mlit.n06-2025.feature.1335.part.000" data-source-feature-id="mlit.n06-2025.feature.1335" data-source-record-id="EA02_183002" data-route-name-ja="首都高速10号晴海線" d="M242.287 286.308 L242.894 287.078 L244.427 288.939 L246.245 291.152 L246.872 291.915 L247.470 292.712 L248.379 294.027"/>
      <path class="atlas-context-path atlas-context-radial" data-path-id="mlit.n06-2025.feature.1414.part.000" data-source-feature-id="mlit.n06-2025.feature.1414" data-source-record-id="EA02_373001" data-route-name-ja="高速横浜環状北西線" d="M94.758 418.798 L94.207 419.106 L93.540 419.425 L92.938 419.619 L91.983 419.687 L91.140 419.585 L90.371 419.379 L89.667 419.072 L89.037 418.638 L88.101 417.772 L86.758 416.313 L85.896 415.230 L85.368 414.501 L84.794 413.577 L83.904 412.016 L83.210 410.899 L82.496 410.112 L81.662 409.383 L80.893 408.904 L80.097 408.505 L79.096 408.140 L77.150 407.832 L74.862 407.570 L72.388 407.297 L66.885 406.658 L60.372 405.940 L58.843 405.633 L57.963 405.211 L57.101 404.755 L56.175 403.957 L55.647 403.262 L54.757 401.848 L53.720 400.024 L53.442 399.124 L52.923 396.890 L52.802 395.966 L52.747 394.895 L52.705 393.769"/>
  </g>
      <g id="shutoAtlasRouteMarks"
         class="atlas-route-marks"
         data-reference-role="DISPLAY_REFERENCE_ONLY"
         data-navigation-authority="false"
         data-catalog-id="shutoko.route-marks.operator-review.2026-07-23"
         data-layout-id="shuto.route-mark-layout.prototype.2026-07-23">
        <title>Current Shuto route-code recognition reference</title>
        <desc>Kaido-owned route-code capsules snapped to matched MLIT context vertices. All twenty-six current operator route names are represented. Yokohama Northwest Route K7 is reconciled to the MLIT source record named 高速横浜環状北西線. This layer is not selectable or navigable.</desc>
        <g class="atlas-route-mark atlas-route-mark-primary" data-mark-id="mark.c1" data-route-id="shutoko.c1" data-route-name-ja="高速都心環状線" data-context-route-name-ja="首都高速都心環状線" data-anchor-distance="0.008247" transform="translate(206.668 281.596)"><line x1="0" y1="0" x2="-12.0" y2="14.0"/><g transform="translate(-12.0 14.0)"><rect x="-14.0" y="-9" width="28" height="18" rx="5"/><text x="0" y="0">C1</text></g></g>
        <g class="atlas-route-mark atlas-route-mark-primary" data-mark-id="mark.c2.west" data-route-id="shutoko.c2" data-route-name-ja="高速中央環状線" data-context-route-name-ja="首都高速中央環状線" data-anchor-distance="0.020994" transform="translate(164.391 253.712)"><g transform="translate(0.0 0.0)"><rect x="-14.0" y="-9" width="28" height="18" rx="5"/><text x="0" y="0">C2</text></g></g>
        <g class="atlas-route-mark atlas-route-mark-secondary" data-mark-id="mark.c2.east" data-route-id="shutoko.c2" data-route-name-ja="高速中央環状線" data-context-route-name-ja="首都高速中央環状線" data-anchor-distance="0.046471" transform="translate(295.913 263.280)"><line x1="0" y1="0" x2="30.0" y2="-45.0"/><g transform="translate(30.0 -45.0)"><rect x="-14.0" y="-9" width="28" height="18" rx="5"/><text x="0" y="0">C2</text></g></g>
        <g class="atlas-route-mark atlas-route-mark-primary" data-mark-id="mark.1.ueno" data-route-id="shutoko.1.ueno" data-route-name-ja="高速1号上野線" data-context-route-name-ja="首都高速1号上野線" data-anchor-distance="0.026128" transform="translate(237.928 231.948)"><g transform="translate(0.0 0.0)"><rect x="-11.0" y="-9" width="22" height="18" rx="5"/><text x="0" y="0">1</text></g></g>
        <g class="atlas-route-mark atlas-route-mark-primary" data-mark-id="mark.1.haneda" data-route-id="shutoko.1.haneda" data-route-name-ja="高速1号羽田線" data-context-route-name-ja="首都高速1号羽田線" data-anchor-distance="0.030287" transform="translate(214.462 359.490)"><g transform="translate(0.0 0.0)"><rect x="-11.0" y="-9" width="22" height="18" rx="5"/><text x="0" y="0">1</text></g></g>
        <g class="atlas-route-mark atlas-route-mark-primary" data-mark-id="mark.2" data-route-id="shutoko.2.meguro" data-route-name-ja="高速2号目黒線" data-context-route-name-ja="首都高速2号目黒線" data-anchor-distance="0.027977" transform="translate(191.950 316.482)"><g transform="translate(0.0 0.0)"><rect x="-11.0" y="-9" width="22" height="18" rx="5"/><text x="0" y="0">2</text></g></g>
        <g class="atlas-route-mark atlas-route-mark-primary" data-mark-id="mark.3" data-route-id="shutoko.3.shibuya" data-route-name-ja="高速3号渋谷線" data-context-route-name-ja="首都高速3号渋谷線" data-anchor-distance="0.018001" transform="translate(120.759 312.530)"><g transform="translate(0.0 0.0)"><rect x="-11.0" y="-9" width="22" height="18" rx="5"/><text x="0" y="0">3</text></g></g>
        <g class="atlas-route-mark atlas-route-mark-primary" data-mark-id="mark.4" data-route-id="shutoko.4.shinjuku" data-route-name-ja="高速4号新宿線" data-context-route-name-ja="首都高速4号新宿線" data-anchor-distance="0.021785" transform="translate(111.329 264.638)"><g transform="translate(0.0 0.0)"><rect x="-11.0" y="-9" width="22" height="18" rx="5"/><text x="0" y="0">4</text></g></g>
        <g class="atlas-route-mark atlas-route-mark-primary" data-mark-id="mark.5" data-route-id="shutoko.5.ikebukuro" data-route-name-ja="高速5号池袋線" data-context-route-name-ja="首都高速5号池袋線" data-anchor-distance="0.015414" transform="translate(134.111 158.646)"><g transform="translate(0.0 0.0)"><rect x="-11.0" y="-9" width="22" height="18" rx="5"/><text x="0" y="0">5</text></g></g>
        <g class="atlas-route-mark atlas-route-mark-primary" data-mark-id="mark.6.mukojima" data-route-id="shutoko.6.mukojima" data-route-name-ja="高速6号向島線" data-context-route-name-ja="首都高速6号向島線" data-anchor-distance="0.021793" transform="translate(263.915 220.239)"><g transform="translate(0.0 0.0)"><rect x="-11.0" y="-9" width="22" height="18" rx="5"/><text x="0" y="0">6</text></g></g>
        <g class="atlas-route-mark atlas-route-mark-primary" data-mark-id="mark.6.misato" data-route-id="shutoko.6.misato" data-route-name-ja="高速6号三郷線" data-context-route-name-ja="首都高速6号三郷線" data-anchor-distance="0.018395" transform="translate(291.271 133.862)"><g transform="translate(0.0 0.0)"><rect x="-11.0" y="-9" width="22" height="18" rx="5"/><text x="0" y="0">6</text></g></g>
        <g class="atlas-route-mark atlas-route-mark-primary" data-mark-id="mark.7" data-route-id="shutoko.7.komatsugawa" data-route-name-ja="高速7号小松川線" data-context-route-name-ja="首都高速7号小松川線" data-anchor-distance="0.006076" transform="translate(311.028 243.885)"><g transform="translate(0.0 0.0)"><rect x="-11.0" y="-9" width="22" height="18" rx="5"/><text x="0" y="0">7</text></g></g>
        <g class="atlas-route-mark atlas-route-mark-secondary" data-mark-id="mark.9" data-route-id="shutoko.9.fukagawa" data-route-name-ja="高速9号深川線" data-context-route-name-ja="首都高速9号深川線" data-anchor-distance="0.022674" transform="translate(260.598 279.205)"><line x1="0" y1="0" x2="27.0" y2="-10.0"/><g transform="translate(27.0 -10.0)"><rect x="-11.0" y="-9" width="22" height="18" rx="5"/><text x="0" y="0">9</text></g></g>
        <g class="atlas-route-mark atlas-route-mark-secondary" data-mark-id="mark.10" data-route-id="shutoko.10.harumi" data-route-name-ja="高速10号晴海線" data-context-route-name-ja="首都高速10号晴海線" data-anchor-distance="0.023990" transform="translate(246.245 291.152)"><line x1="0" y1="0" x2="36.0" y2="5.0"/><g transform="translate(36.0 5.0)"><rect x="-14.0" y="-9" width="28" height="18" rx="5"/><text x="0" y="0">10</text></g></g>
        <g class="atlas-route-mark atlas-route-mark-secondary" data-mark-id="mark.11" data-route-id="shutoko.11.daiba" data-route-name-ja="高速11号台場線" data-context-route-name-ja="首都高速11号台場線" data-anchor-distance="0.013228" transform="translate(223.720 302.046)"><line x1="0" y1="0" x2="15.0" y2="24.0"/><g transform="translate(15.0 24.0)"><rect x="-14.0" y="-9" width="28" height="18" rx="5"/><text x="0" y="0">11</text></g></g>
        <g class="atlas-route-mark atlas-route-mark-primary" data-mark-id="mark.b.east" data-route-id="shutoko.b.bayshore" data-route-name-ja="高速湾岸線" data-context-route-name-ja="首都高速湾岸線" data-anchor-distance="0.015059" transform="translate(327.712 299.404)"><g transform="translate(0.0 0.0)"><rect x="-11.0" y="-9" width="22" height="18" rx="5"/><text x="0" y="0">B</text></g></g>
        <g class="atlas-route-mark atlas-route-mark-secondary" data-mark-id="mark.b.south" data-route-id="shutoko.b.bayshore" data-route-name-ja="高速湾岸線" data-context-route-name-ja="首都高速湾岸線" data-anchor-distance="0.017592" transform="translate(128.975 515.392)"><g transform="translate(0.0 0.0)"><rect x="-11.0" y="-9" width="22" height="18" rx="5"/><text x="0" y="0">B</text></g></g>
        <g class="atlas-route-mark atlas-route-mark-secondary atlas-route-mark-closed" data-mark-id="mark.y" data-route-id="shutoko.y.yaesu" data-route-name-ja="高速八重洲線" data-context-route-name-ja="首都高速八重洲線" data-anchor-distance="0.027145" transform="translate(229.398 265.979)"><line x1="0" y1="0" x2="-24.0" y2="-13.0"/><g transform="translate(-24.0 -13.0)"><rect x="-11.0" y="-9" width="22" height="18" rx="5"/><text x="0" y="0">Y</text></g></g>
        <g class="atlas-route-mark atlas-route-mark-primary" data-mark-id="mark.s1" data-route-id="shutoko.s1.kawaguchi" data-route-name-ja="高速川口線" data-context-route-name-ja="首都高速川口線" data-anchor-distance="0.011693" transform="translate(208.787 102.047)"><g transform="translate(0.0 0.0)"><rect x="-14.0" y="-9" width="28" height="18" rx="5"/><text x="0" y="0">S1</text></g></g>
        <g class="atlas-route-mark atlas-route-mark-primary" data-mark-id="mark.s2" data-route-id="shutoko.s2.saitama-shintoshin" data-route-name-ja="高速埼玉新都心線" data-context-route-name-ja="首都高速埼玉新都心線" data-anchor-distance="0.000835" transform="translate(123.035 54.763)"><g transform="translate(0.0 0.0)"><rect x="-14.0" y="-9" width="28" height="18" rx="5"/><text x="0" y="0">S2</text></g></g>
        <g class="atlas-route-mark atlas-route-mark-primary" data-mark-id="mark.s5" data-route-id="shutoko.s5.saitama-omiya" data-route-name-ja="高速埼玉大宮線" data-context-route-name-ja="首都高速埼玉大宮線" data-anchor-distance="0.027100" transform="translate(115.914 81.830)"><g transform="translate(0.0 0.0)"><rect x="-14.0" y="-9" width="28" height="18" rx="5"/><text x="0" y="0">S5</text></g></g>
        <g class="atlas-route-mark atlas-route-mark-primary" data-mark-id="mark.k1" data-route-id="shutoko.k1.yokohane" data-route-name-ja="高速神奈川1号横羽線" data-context-route-name-ja="首都高速神奈川1号横羽線" data-anchor-distance="0.026670" transform="translate(171.456 435.562)"><g transform="translate(0.0 0.0)"><rect x="-14.0" y="-9" width="28" height="18" rx="5"/><text x="0" y="0">K1</text></g></g>
        <g class="atlas-route-mark atlas-route-mark-primary" data-mark-id="mark.k2" data-route-id="shutoko.k2.mitsuzawa" data-route-name-ja="高速神奈川2号三ツ沢線" data-context-route-name-ja="首都高速神奈川2号三ツ沢線" data-anchor-distance="0.019973" transform="translate(100.200 458.751)"><g transform="translate(0.0 0.0)"><rect x="-14.0" y="-9" width="28" height="18" rx="5"/><text x="0" y="0">K2</text></g></g>
        <g class="atlas-route-mark atlas-route-mark-primary" data-mark-id="mark.k3" data-route-id="shutoko.k3.kariba" data-route-name-ja="高速神奈川3号狩場線" data-context-route-name-ja="首都高速神奈川3号狩場線" data-anchor-distance="0.009459" transform="translate(84.988 490.716)"><g transform="translate(0.0 0.0)"><rect x="-14.0" y="-9" width="28" height="18" rx="5"/><text x="0" y="0">K3</text></g></g>
        <g class="atlas-route-mark atlas-route-mark-primary" data-mark-id="mark.k5" data-route-id="shutoko.k5.daikoku" data-route-name-ja="高速神奈川5号大黒線" data-context-route-name-ja="首都高速神奈川5号大黒線" data-anchor-distance="0.028472" transform="translate(158.726 457.628)"><g transform="translate(0.0 0.0)"><rect x="-14.0" y="-9" width="28" height="18" rx="5"/><text x="0" y="0">K5</text></g></g>
        <g class="atlas-route-mark atlas-route-mark-primary" data-mark-id="mark.k6" data-route-id="shutoko.k6.kawasaki" data-route-name-ja="高速神奈川6号川崎線" data-context-route-name-ja="首都高速神奈川6号川崎線" data-anchor-distance="0.016619" transform="translate(226.900 400.643)"><g transform="translate(0.0 0.0)"><rect x="-14.0" y="-9" width="28" height="18" rx="5"/><text x="0" y="0">K6</text></g></g>
        <g class="atlas-route-mark atlas-route-mark-primary" data-mark-id="mark.k7" data-route-id="shutoko.k7.yokohama-north" data-route-name-ja="高速神奈川7号横浜北線" data-context-route-name-ja="首都高速神奈川7号横浜北線" data-anchor-distance="0.012846" transform="translate(103.432 418.105)"><g transform="translate(0.0 0.0)"><rect x="-14.0" y="-9" width="28" height="18" rx="5"/><text x="0" y="0">K7</text></g></g>
        <g class="atlas-route-mark atlas-route-mark-secondary" data-mark-id="mark.k7.northwest" data-route-id="shutoko.k7.yokohama-northwest" data-route-name-ja="高速神奈川7号横浜北西線" data-context-route-name-ja="高速横浜環状北西線" data-anchor-distance="0.005632" transform="translate(66.885 406.658)"><line x1="0" y1="0" x2="-8.0" y2="-13.0"/><g transform="translate(-8.0 -13.0)"><rect x="-14.0" y="-9" width="28" height="18" rx="5"/><text x="0" y="0">K7</text></g></g>
      </g>
  <text class="atlas-context-caption" x="20" y="586">RECOGNITION REFERENCE · 26 / 26 ROUTES PLACED · NAVIGATION BLOCKED</text>
  <text class="atlas-context-attribution" x="20" y="601">SOURCE: MLIT NLNI N06-2025 · MODIFIED BY KAIDO ROUTES · CC BY 4.0</text>
  <style>
    .atlas-context-path {
      fill: none;
      stroke: #53666e;
      stroke-width: 2.8;
      stroke-linecap: round;
      stroke-linejoin: round;
      opacity: .74;
    }
    .atlas-context-c1 { stroke: #93a4aa; stroke-width: 3.8; opacity: .98; }
    .atlas-context-c2 { stroke: #7d9299; stroke-width: 3.5; opacity: .94; }
    .atlas-context-bayshore { stroke: #6f8b94; stroke-width: 3.5; opacity: .94; }
    .atlas-context-provisional { stroke-dasharray: 5 5; }
    .atlas-route-mark rect {
      fill: #10191d;
      stroke: #c8d5d8;
      stroke-width: 1;
      vector-effect: non-scaling-stroke;
    }
    .atlas-route-mark line {
      stroke: #83969d;
      stroke-width: .8;
      vector-effect: non-scaling-stroke;
    }
    .atlas-route-mark text {
      fill: #f4f6f4;
      font-family: ui-monospace, SFMono-Regular, Menlo, monospace;
      font-size: 9px;
      font-weight: 900;
      text-anchor: middle;
      dominant-baseline: central;
    }
    .atlas-route-mark-secondary { opacity: .78; }
    .atlas-route-mark-closed rect { stroke: #eb8d7f; stroke-dasharray: 2 2; }
    .atlas-route-mark-closed text { fill: #f2aaa0; }
    .atlas-context-caption {
      fill: rgba(172, 193, 200, .68);
      font-family: ui-monospace, SFMono-Regular, Menlo, monospace;
      font-size: 7px;
      font-weight: 800;
      letter-spacing: .04em;
    }
    .atlas-context-attribution {
      fill: rgba(172, 193, 200, .55);
      font-family: ui-monospace, SFMono-Regular, Menlo, monospace;
      font-size: 5.4px;
      font-weight: 700;
      letter-spacing: .03em;
    }
  </style>
</svg>
